<svg width="11" height="11" viewBox="0 0 11 11" fill="none" xmlns="http://www.w3.org/2000/svg">
<path d="M10.9993 5.62109C10.9993 5.16859 10.9618 4.83859 10.8813 4.49609H5.61133V6.53759H8.70433C8.64233 7.04459 8.30583 7.80859 7.55733 8.32209L7.54683 8.39009L9.21283 9.65509L9.32783 9.66609C10.3888 8.70709 10.9993 7.29509 10.9993 5.62109Z" fill="#4285F4"/>
<path d="M5.61166 10.9984C7.12666 10.9984 8.39866 10.5094 9.32816 9.66594L7.55716 8.32194C7.08316 8.64594 6.44716 8.87194 5.61166 8.87194C4.90738 8.872 4.22076 8.65158 3.64812 8.24161C3.07547 7.83163 2.64555 7.25266 2.41866 6.58594L2.35266 6.59144L0.620156 7.90544L0.597656 7.96744C1.52066 9.76394 3.41666 10.9984 5.61166 10.9984Z" fill="#34A853"/>
<path d="M2.42 6.58741C2.29702 6.23794 2.23331 5.87038 2.2315 5.49991C2.2315 5.12091 2.3005 4.75441 2.412 4.41241L2.409 4.33891L0.655 3.00391L0.5975 3.03091C0.205396 3.79489 0.000595797 4.64117 0 5.49991C0 6.38591 0.218 7.22341 0.5985 7.96891L2.42 6.58741Z" fill="#FBBC05"/>
<path d="M5.61166 2.1265C6.66566 2.1265 7.37616 2.5725 7.78166 2.9455L9.36516 1.43C8.39266 0.544 7.12666 0 5.61166 0C3.41616 0 1.52066 1.2345 0.597656 3.031L2.41266 4.4125C2.6415 3.74583 3.07275 3.16722 3.64622 2.75742C4.2197 2.34761 4.9068 2.12705 5.61166 2.1265Z" fill="#EB4335"/>
</svg>
