<svg width="47" height="48" viewBox="0 0 47 48" fill="none" xmlns="http://www.w3.org/2000/svg">
<g clip-path="url(#clip0_3624_362)">
<path d="M18.784 29.4399L32.8996 19.0059C33.5921 18.4952 34.5822 18.6926 34.9112 19.4884C36.6471 23.6777 35.87 28.713 32.4171 32.1722C28.9642 35.6282 24.1608 36.3865 19.7678 34.66L14.9707 36.8847C21.8515 41.5941 30.2081 40.4285 35.4282 35.199C39.5705 31.0536 40.852 25.401 39.652 20.3031L39.6614 20.3125C37.9224 12.8238 40.0875 9.8315 44.5274 3.7121C44.6308 3.56797 44.7374 3.4207 44.8439 3.27344L39.0034 9.12024V9.10144L18.7808 29.443" fill="black"/>
<path d="M15.8699 31.9754C10.9317 27.2535 11.784 19.9434 15.9952 15.726C19.1097 12.6052 24.2171 11.333 28.6727 13.2036L33.4604 10.9915C32.5987 10.368 31.4927 9.69743 30.2237 9.2243C24.4928 6.86176 17.6277 8.03676 12.9684 12.6992C8.48773 17.1861 7.07773 24.0857 9.49666 29.9732C11.3046 34.3724 8.34046 37.487 5.35439 40.6266C4.29533 41.7389 3.23626 42.8544 2.38086 44.0325L15.8636 31.9754" fill="black"/>
</g>
<defs>
<clipPath id="clip0_3624_362">
<rect width="47" height="47" fill="white" transform="translate(0 0.115234)"/>
</clipPath>
</defs>
</svg>
