<svg width="5000" height="5000" viewBox="0 0 5000 5000" fill="none" xmlns="http://www.w3.org/2000/svg">
<g clip-path="url(#clip0_3639_7)">
<path d="M1998.33 3119.67L3500 2009.67C3573.67 1955.33 3679 1976.33 3714 2061C3898.67 2506.67 3816 3042.33 3448.67 3410.33C3081.33 3778 2570.33 3858.67 2103 3675L1592.67 3911.67C2324.67 4412.67 3213.67 4288.67 3769 3732.33C4209.67 3291.33 4346 2690 4218.33 2147.67L4219.33 2148.67C4034.33 1352 4264.67 1033.67 4737 382.667C4748 367.333 4759.33 351.667 4770.67 336L4149.33 958V956L1998 3120" fill="white"/>
<path d="M1688.33 3389.33C1163 2887 1253.67 2109.33 1701.67 1660.67C2033 1328.67 2576.33 1193.33 3050.33 1392.33L3559.67 1157C3468 1090.67 3350.33 1019.33 3215.33 969C2605.67 717.667 1875.33 842.667 1379.67 1338.67C903 1816 753 2550 1010.33 3176.33C1202.67 3644.33 887.333 3975.67 569.666 4309.67C457 4428 344.333 4546.67 253.333 4672L1687.67 3389.33" fill="white"/>
</g>
<defs>
<clipPath id="clip0_3639_7">
<rect width="5000" height="5000" fill="white"/>
</clipPath>
</defs>
</svg>
