<svg width="12" height="12" viewBox="0 0 12 12" fill="none" xmlns="http://www.w3.org/2000/svg">
<path d="M12 6.00002C12 2.68652 9.30002 -0.00847995 5.98502 2.00516e-05C2.69502 0.00852005 0.00752005 2.69502 2.00516e-05 5.98502C-0.00847995 9.30002 2.68652 12 6.00002 12H9.94252C10.4873 12 11.0097 11.7836 11.3949 11.3984C11.7801 11.0132 11.9965 10.4908 11.9965 9.94602V6.20002C11.9985 6.13352 12 6.06702 12 6.00002ZM2.91452 9.33202C1.95952 8.51702 1.37052 7.21202 1.39802 5.88202C1.40002 5.78902 1.40452 5.69602 1.41302 5.60302V5.59702C1.55152 4.01002 2.57652 2.53002 4.01302 1.84252C5.45002 1.15502 7.24602 1.28652 8.56802 2.17452C9.89002 3.06302 10.6895 4.67652 10.596 6.26652C10.5729 6.61467 10.5179 6.95996 10.4315 7.29802C10.3985 7.43302 10.358 7.57252 10.2625 7.67302C10.1675 7.77352 10.0005 7.82052 9.88752 7.74002C9.77952 7.66302 9.76352 7.51202 9.75452 7.38002C9.67952 6.31302 9.39452 5.21252 8.67352 4.42252C8.11916 3.82278 7.36308 3.44857 6.55002 3.37152C5.737 3.30122 4.92556 3.52319 4.26152 3.99752C3.71202 4.39102 3.28052 4.95452 3.07152 5.59752C2.86352 6.24002 2.88452 6.96052 3.15902 7.57852C3.36244 8.03479 3.69205 8.42339 4.10902 8.69852C4.84252 9.18002 5.84652 9.24852 6.60902 8.81352C7.37102 8.37852 7.82652 7.43452 7.63252 6.57852C7.43802 5.72252 6.57052 5.05502 5.69752 5.14552C5.56452 5.15902 5.37352 5.14452 5.36902 5.01052C5.36502 4.90702 5.48952 4.85252 5.59152 4.83402C6.47702 4.67502 7.42652 5.12502 7.91152 5.88252C8.39802 6.64002 8.42252 7.65452 8.02602 8.46252C7.62902 9.27002 6.84102 9.86002 5.96702 10.073C4.78852 10.3605 3.72052 10.0205 2.91452 9.33202Z" fill="url(#paint0_linear_292_224)"/>
<defs>
<linearGradient id="paint0_linear_292_224" x1="0.26952" y1="0.44202" x2="13.7435" y2="13.511" gradientUnits="userSpaceOnUse">
<stop offset="0.09" stop-color="#FFAB0C"/>
<stop offset="0.31" stop-color="#FF5538"/>
<stop offset="0.46" stop-color="#E9405D"/>
<stop offset="0.75" stop-color="#D266DA"/>
<stop offset="0.89" stop-color="#D584EF"/>
</linearGradient>
</defs>
</svg>
