<svg width="9" height="12" viewBox="0 0 9 12" fill="none" xmlns="http://www.w3.org/2000/svg">
<path d="M7.92666 1.46257C7.28756 0.712008 6.44322 0.0154815 4.35606 0.000164968C3.54059 -0.00668435 2.29576 0.196206 1.32719 1.27354C0.741108 1.92412 0.310017 2.74609 0.432556 4.08958C0.459269 4.38114 0.85488 4.71837 0.576834 5.28099C0.576834 5.28099 -0.0204792 6.38669 0.000542117 6.5706C0.000542117 6.5706 -0.010071 6.90692 0.484699 6.91749C0.484699 6.91749 0.608213 6.93431 0.572579 7.22096L0.566682 7.63882C0.566682 7.63882 0.582423 7.76319 0.79884 7.83875C0.79884 7.83875 0.840062 7.88211 0.778536 7.96397C0.778536 7.96397 0.664714 8.09756 0.860776 8.38637C0.933377 8.49153 1.0514 8.62415 0.979265 8.8964C0.979265 8.8964 0.886514 9.4211 1.08232 9.54676C1.08232 9.54676 1.30494 9.82467 2.20071 9.70834C2.51392 9.66789 3.09201 9.50847 3.43656 9.96365C3.43656 9.96365 4.26039 11.6105 4.32314 12C4.32314 12 5.72916 9.36695 7.44538 8.96052C7.44538 8.96052 7.02715 7.96877 7.87785 6.68445C7.87785 6.68445 8.94399 5.205 8.97552 4.3923C8.97496 4.39225 9.25613 3.02282 7.92666 1.46257ZM2.83114 3.09136C2.77023 3.11466 2.72962 3.17566 2.72901 3.24356L2.7225 4.0089C1.49798 3.93323 1.50905 3.36598 1.61493 2.64492C1.69901 2.07222 2.12257 1.6022 2.74639 1.30256L2.73926 2.15975C2.73865 2.22765 2.77833 2.28897 2.83852 2.31356C2.89867 2.33842 2.9667 2.32073 3.01049 2.26988C3.132 2.12609 3.30248 2.04417 3.4805 2.04417C3.48249 2.04417 3.48398 2.04417 3.48583 2.04417C3.83345 2.04752 4.1139 2.34813 4.11119 2.71438C4.1077 3.07858 3.82484 3.37342 3.47962 3.37342C3.47747 3.37342 3.47568 3.37342 3.47404 3.37342C3.29448 3.37186 3.12277 3.28659 3.00321 3.13963C2.95963 3.08689 2.89098 3.06823 2.83114 3.09136ZM6.58924 5.12529C6.32555 5.09724 6.05679 5.02152 5.81068 4.91026C5.16882 4.62065 4.99126 3.85094 3.9827 3.95966C3.61129 3.99984 3.30099 4.0164 3.03187 4.01704L3.03597 3.58101C3.16871 3.65608 3.31673 3.6975 3.46947 3.69923C3.47219 3.69923 3.47465 3.69923 3.47691 3.69923C3.99193 3.69923 4.41441 3.26044 4.41897 2.71692C4.42364 2.17053 4.0047 1.72236 3.48588 1.7174C3.33847 1.71805 3.1842 1.75499 3.05084 1.82769L3.05674 1.17199C3.5613 0.99283 4.16271 0.911879 4.81002 0.960795C5.47583 1.01003 6.09893 1.2174 6.62021 1.53107L6.61688 1.8594C6.48414 1.78401 6.33622 1.74253 6.18322 1.74129C5.67287 1.74847 5.2389 2.17738 5.23285 2.72344C5.23039 2.98851 5.32709 3.23795 5.5029 3.42698C5.67922 3.61552 5.91471 3.72074 6.16687 3.72263C6.32473 3.71832 6.4684 3.68553 6.60145 3.61234L6.58924 5.12529ZM6.89959 5.13391L6.91538 3.28072C6.916 3.21282 6.87626 3.1515 6.81627 3.12707C6.75623 3.10253 6.68809 3.11973 6.64415 3.17075C6.52136 3.31566 6.35473 3.38944 6.16989 3.39597C6.00136 3.39473 5.84319 3.32375 5.72527 3.19788C5.60652 3.07114 5.54223 2.90411 5.54376 2.72689C5.54771 2.36221 5.83012 2.06747 6.17528 2.06747C6.17712 2.06747 6.17922 2.06747 6.18107 2.06747C6.36349 2.06903 6.53074 2.15225 6.65226 2.30143C6.69404 2.35336 6.76254 2.37154 6.8232 2.34905C6.88411 2.32597 6.92471 2.26524 6.92533 2.19734L6.92958 1.73892C7.54412 2.20117 7.96327 2.82931 8.04207 3.52648C8.16974 4.66056 7.59663 5.09821 6.89959 5.13391Z" fill="white"/>
</svg>
