<svg width="50" height="62" viewBox="0 0 50 62" fill="none" xmlns="http://www.w3.org/2000/svg">
<path d="M43.6232 7.55664C40.1498 3.67871 35.5611 0.079988 24.2179 0.000852333C19.786 -0.0345358 13.0208 1.01373 7.75687 6.57998C4.57166 9.94129 2.2288 14.1881 2.89477 21.1295C3.03994 22.6359 5.18998 24.3783 3.67888 27.2851C3.67888 27.2851 0.432646 32.9979 0.546892 33.9481C0.546892 33.9481 0.489212 35.6857 3.17815 35.7404C3.17815 35.7404 3.84941 35.8273 3.65575 37.3083L3.62371 39.4673C3.62371 39.4673 3.70925 40.1098 4.88542 40.5002C4.88542 40.5002 5.10945 40.7242 4.77508 41.1472C4.77508 41.1472 4.15648 41.8374 5.22203 43.3296C5.61659 43.8729 6.25803 44.5581 5.86598 45.9647C5.86598 45.9647 5.36191 48.6757 6.42606 49.3249C6.42606 49.3249 7.63594 50.7608 12.5042 50.1598C14.2064 49.9508 17.3482 49.1271 19.2207 51.4789C19.2207 51.4789 23.698 59.9874 24.039 62C24.039 62 31.6804 48.3959 41.0075 46.296C41.0075 46.296 38.7346 41.172 43.3579 34.5363C43.3579 34.5363 49.1521 26.8925 49.3234 22.6936C49.3204 22.6933 50.8485 15.6179 43.6232 7.55664ZM15.9304 15.972C15.5994 16.0924 15.3787 16.4076 15.3754 16.7584L15.34 20.7127C8.68505 20.3217 8.74523 17.3909 9.32064 13.6654C9.77762 10.7065 12.0795 8.27805 15.4698 6.72989L15.4311 11.1587C15.4277 11.5095 15.6434 11.8263 15.9705 11.9534C16.2974 12.0819 16.6672 11.9905 16.9051 11.7277C17.5655 10.9848 18.492 10.5616 19.4595 10.5616C19.4703 10.5616 19.4784 10.5616 19.4885 10.5616C21.3777 10.5788 22.9019 12.132 22.8871 14.0243C22.8682 15.906 21.3309 17.4294 19.4547 17.4294C19.443 17.4294 19.4333 17.4294 19.4244 17.4294C18.4485 17.4213 17.5154 16.9807 16.8656 16.2214C16.6287 15.9489 16.2556 15.8525 15.9304 15.972ZM36.3547 26.4806C34.9216 26.3358 33.4609 25.9445 32.1234 25.3697C28.635 23.8733 27.6701 19.8965 22.1888 20.4583C20.1703 20.6658 18.4839 20.7514 17.0213 20.7547L17.0436 18.5019C17.765 18.8898 18.5695 19.1038 19.3996 19.1127C19.4143 19.1127 19.4277 19.1127 19.44 19.1127C22.239 19.1127 24.535 16.8456 24.5598 14.0374C24.5852 11.2144 22.3084 8.89888 19.4887 8.87324C18.6876 8.87659 17.8492 9.06746 17.1244 9.44307L17.1565 6.05529C19.8986 5.12962 23.1671 4.71137 26.6851 4.96411C30.3036 5.21851 33.69 6.28991 36.523 7.91052L36.5048 9.60692C35.7834 9.21737 34.9795 9.00309 34.1481 8.99668C31.3744 9.03374 29.0159 11.2498 28.9831 14.0711C28.9697 15.4407 29.4952 16.7294 30.4507 17.7061C31.409 18.6802 32.6888 19.2239 34.0592 19.2336C34.9171 19.2113 35.6979 19.0419 36.421 18.6638L36.3547 26.4806ZM38.0413 26.5252L38.1271 16.9504C38.1305 16.5996 37.9145 16.2827 37.5885 16.1565C37.2622 16.0297 36.8919 16.1186 36.6531 16.3822C35.9857 17.1309 35.0801 17.5121 34.0756 17.5458C33.1597 17.5394 32.3001 17.1727 31.6592 16.5224C31.0138 15.8676 30.6644 15.0046 30.6728 14.0889C30.6942 12.2047 32.229 10.6819 34.1049 10.6819C34.1149 10.6819 34.1263 10.6819 34.1364 10.6819C35.1278 10.69 36.0367 11.12 36.6971 11.8907C36.9242 12.159 37.2965 12.2529 37.6261 12.1368C37.9572 12.0175 38.1778 11.7037 38.1812 11.3529L38.2043 8.98442C41.5442 11.3727 43.8221 14.6181 44.2504 18.2202C44.9442 24.0795 41.8295 26.3408 38.0413 26.5252Z" fill="black"/>
</svg>
