<svg width="50" height="50" viewBox="0 0 50 50" fill="none" xmlns="http://www.w3.org/2000/svg">
<path d="M35.5167 7.7832L29.6473 14.7009L34.5885 20.6304C38.1228 16.8468 45.3052 8.10509 45.4566 8.03732C45.6081 7.96956 38.8931 7.83967 35.5167 7.7832Z" fill="#AD1D34"/>
<path d="M16.8573 7.7832H7.48394H5.92957L20.6254 25.3397L5.92957 43.36H16.8573L31.6238 25.3397L16.8573 7.7832Z" fill="#D6CE2B"/>
<path d="M34.7707 29.5234L29.6473 35.3285L34.5885 41.3824H45.4592L34.7707 29.5234Z" fill="#153347"/>
<path d="M34.55 41.0287L36.3142 44.6945L45.3364 44.7049L46.7994 41.026L34.55 41.0287Z" fill="white"/>
<path d="M32.9796 9.54975L33.1113 5.90845L45.6286 5.9086L45.6287 9.96276L32.9796 9.54975Z" fill="white"/>
<path d="M29.8376 35.1846L27.4471 38.0218L33.0834 44.6899H37.8863L29.8376 35.1846Z" fill="white"/>
<path d="M16.8914 5.90723H0L16.5592 25.3203L0 44.7407H16.8398L33.4248 25.2988L16.8914 5.90723ZM7.94913 9.54381H15.1414L28.5992 25.3239L15.1414 41.1041H7.95283L21.4106 25.3239L7.95283 9.54381H7.94913Z" fill="white"/>
<path d="M29.8649 15.3648L28.656 13.9492L27.4471 12.5336L33.0997 5.90723H37.9353L29.8649 15.3648Z" fill="white"/>
<path d="M33.475 19.5842L35.8651 22.3864L49.8933 5.90723H45.1167L33.475 19.5842Z" fill="white"/>
<path d="M45.1568 44.7026H49.9999L42.9271 36.4153L35.8543 28.1279L33.4346 30.9682L45.1568 44.7026Z" fill="white"/>
</svg>
