<svg width="20" height="20" viewBox="0 0 20 20" fill="none" xmlns="http://www.w3.org/2000/svg">
<g clip-path="url(#clip0_4607_625)">
<path d="M10.5034 1.11648C10.8309 1.69148 11.1567 2.26815 11.4817 2.84565C11.4949 2.86874 11.5139 2.88793 11.5369 2.90126C11.5599 2.91458 11.586 2.92156 11.6126 2.92148H16.2392C16.3842 2.92148 16.5076 3.01315 16.6109 3.19398L17.8226 5.33565C17.9809 5.61648 18.0226 5.73398 17.8426 6.03315C17.6259 6.39148 17.4151 6.75315 17.2092 7.11648L16.9034 7.66481C16.8151 7.82815 16.7176 7.89815 16.8701 8.09148L19.0801 11.9556C19.2234 12.2065 19.1726 12.3673 19.0442 12.5973C18.6801 13.2515 18.3092 13.9006 17.9317 14.5473C17.7992 14.774 17.6384 14.8598 17.3651 14.8556C16.7176 14.8423 16.0717 14.8473 15.4259 14.869C15.4121 14.8697 15.3986 14.8739 15.3868 14.8812C15.375 14.8885 15.3653 14.8986 15.3584 14.9106C14.6133 16.2309 13.8619 17.5476 13.1042 18.8606C12.9634 19.1048 12.7876 19.1631 12.5001 19.164C11.6692 19.1665 10.8317 19.1673 9.98591 19.1656C9.90717 19.1654 9.82987 19.1444 9.76183 19.1048C9.69379 19.0651 9.63742 19.0082 9.59841 18.9398L8.48591 17.004C8.47944 16.9913 8.4695 16.9808 8.45726 16.9735C8.44501 16.9663 8.43096 16.9627 8.41675 16.9631H4.15175C3.91425 16.9881 3.69091 16.9623 3.48091 16.8865L2.14508 14.5781C2.10557 14.5098 2.08464 14.4323 2.08434 14.3534C2.08405 14.2744 2.10442 14.1968 2.14341 14.1281L3.14925 12.3615C3.16358 12.3365 3.17111 12.3082 3.17111 12.2794C3.17111 12.2506 3.16358 12.2223 3.14925 12.1973C2.62531 11.2902 2.10447 10.3813 1.58675 9.47065L0.928414 8.30815C0.795081 8.04981 0.784248 7.89481 1.00758 7.50398C1.39508 6.82648 1.78008 6.14981 2.16341 5.47398C2.27341 5.27898 2.41675 5.19565 2.65008 5.19481C3.36924 5.19178 4.08842 5.1915 4.80758 5.19398C4.82575 5.19384 4.84355 5.18891 4.85921 5.17969C4.87486 5.17048 4.88781 5.1573 4.89675 5.14148L7.23508 1.06231C7.27052 1.00026 7.32168 0.948635 7.38342 0.912646C7.44516 0.876657 7.51529 0.857572 7.58675 0.857312C8.02341 0.856479 8.46425 0.857312 8.90591 0.852312L9.75341 0.833146C10.0376 0.830646 10.3567 0.859812 10.5034 1.11648ZM7.64341 1.45231C7.63463 1.45231 7.626 1.45461 7.6184 1.459C7.61079 1.46339 7.60447 1.46971 7.60008 1.47731L5.21175 5.65648C5.20028 5.67617 5.18387 5.69253 5.16414 5.70393C5.1444 5.71533 5.12204 5.72138 5.09925 5.72148H2.71091C2.66425 5.72148 2.65258 5.74231 2.67675 5.78315L7.51841 14.2465C7.53925 14.2815 7.52925 14.2981 7.49008 14.299L5.16091 14.3115C5.12686 14.3103 5.09318 14.3188 5.06371 14.3359C5.03424 14.353 5.01017 14.378 4.99425 14.4081L3.89425 16.3331C3.85758 16.3981 3.87675 16.4315 3.95091 16.4315L8.71425 16.4381C8.75258 16.4381 8.78091 16.4548 8.80091 16.489L9.97008 18.534C10.0084 18.6015 10.0467 18.6023 10.0859 18.534L14.2576 11.234L14.9101 10.0823C14.9141 10.0752 14.9199 10.0693 14.9269 10.0652C14.9339 10.061 14.9419 10.0589 14.9501 10.0589C14.9582 10.0589 14.9662 10.061 14.9733 10.0652C14.9803 10.0693 14.9861 10.0752 14.9901 10.0823L16.1767 12.1906C16.1857 12.2064 16.1986 12.2195 16.2143 12.2286C16.23 12.2377 16.2478 12.2424 16.2659 12.2423L18.5684 12.2256C18.5743 12.2257 18.5801 12.2242 18.5853 12.2213C18.5904 12.2183 18.5946 12.2141 18.5976 12.209C18.6004 12.2039 18.6019 12.1981 18.6019 12.1923C18.6019 12.1865 18.6004 12.1807 18.5976 12.1756L16.1809 7.93731C16.1722 7.92315 16.1676 7.90685 16.1676 7.89023C16.1676 7.87361 16.1722 7.85731 16.1809 7.84315L16.4251 7.42065L17.3584 5.77315C17.3784 5.73898 17.3684 5.72148 17.3292 5.72148H7.66675C7.61758 5.72148 7.60591 5.69981 7.63091 5.65731L8.82591 3.56981C8.83487 3.55559 8.83962 3.53912 8.83962 3.52231C8.83962 3.5055 8.83487 3.48904 8.82591 3.47481L7.68758 1.47815C7.68323 1.47026 7.67683 1.4637 7.66905 1.45915C7.66128 1.4546 7.65242 1.45224 7.64341 1.45231ZM12.8851 8.13565C12.9234 8.13565 12.9334 8.15231 12.9134 8.18565L12.2201 9.40648L10.0426 13.2273C10.0385 13.2347 10.0324 13.2409 10.0251 13.2452C10.0178 13.2494 10.0094 13.2516 10.0009 13.2515C9.99246 13.2514 9.98417 13.2492 9.97686 13.245C9.96954 13.2407 9.96347 13.2346 9.95925 13.2273L7.08175 8.20065C7.06508 8.17231 7.07341 8.15731 7.10508 8.15565L7.28508 8.14565L12.8867 8.13565H12.8851Z" fill="url(#paint0_linear_4607_625)"/>
</g>
<defs>
<linearGradient id="paint0_linear_4607_625" x1="0.833008" y1="0.833008" x2="1834.19" y2="0.833008" gradientUnits="userSpaceOnUse">
<stop stop-color="white"/>
<stop offset="1" stop-color="#6F69F7" stop-opacity="0.84"/>
</linearGradient>
<clipPath id="clip0_4607_625">
<rect width="20" height="20" fill="white"/>
</clipPath>
</defs>
</svg>
