<svg width="11" height="11" viewBox="0 0 11 11" fill="none" xmlns="http://www.w3.org/2000/svg">
<path fill-rule="evenodd" clip-rule="evenodd" d="M8.43 10.9961C7.0955 11.1186 5.9865 9.55815 5.1315 8.76915C4.699 11.8796 0 11.5886 0 8.43015V2.57515C0 2.11465 0.122 1.64465 0.3665 1.25015C0.8175 0.488648 1.6915 -0.00985227 2.575 0.000147727H8.43C11.588 0.000147727 11.889 4.69915 8.7685 5.12165L10.2535 6.59715C11.8795 8.12915 10.6575 11.0616 8.4305 10.9956L8.43 10.9961ZM7.716 9.13565C8.637 10.0846 10.103 8.61865 9.154 7.69765L6.588 5.13165H5.15V6.56965L7.368 8.78765L7.716 9.13565ZM1.56 8.42115C1.5415 9.73715 3.6185 9.73715 3.59 8.42115V2.56615C3.609 1.90815 2.9135 1.39115 2.284 1.58865C2.2555 1.59815 2.2275 1.60715 2.209 1.61665C1.814 1.76715 1.5415 2.16165 1.5505 2.58465V8.42115H1.56ZM8.43 3.58115C9.746 3.59965 9.746 1.53215 8.43 1.55115H4.9435C5.2065 2.10565 5.141 2.97965 5.15 3.58115H8.43Z" fill="white"/>
</svg>
