<svg width="12" height="12" viewBox="0 0 12 12" fill="none" xmlns="http://www.w3.org/2000/svg">
<g clip-path="url(#clip0_5984_9)">
<path fill-rule="evenodd" clip-rule="evenodd" d="M4.484 5.57349C4.5381 5.57349 4.58999 5.59498 4.62825 5.63324C4.66651 5.67149 4.688 5.72338 4.688 5.77749C4.688 5.83159 4.66651 5.88348 4.62825 5.92174C4.58999 5.95999 4.5381 5.98149 4.484 5.98149C4.42989 5.98149 4.37801 5.95999 4.33975 5.92174C4.30149 5.88348 4.28 5.83159 4.28 5.77749C4.28 5.72338 4.30149 5.67149 4.33975 5.63324C4.37801 5.59498 4.42989 5.57349 4.484 5.57349Z" fill="white"/>
<path fill-rule="evenodd" clip-rule="evenodd" d="M3.605 4.37401C3.6275 4.36801 3.6485 4.37551 3.669 4.39601C3.7665 4.49601 3.864 4.59501 3.9625 4.69401C3.97113 4.70218 3.98159 4.70818 3.993 4.71151L4.398 4.81601C4.426 4.82301 4.443 4.83751 4.449 4.86001C4.4555 4.88301 4.448 4.90501 4.4275 4.92501L4.1295 5.21751C4.12535 5.22203 4.12182 5.22707 4.119 5.23251C4.11576 5.23765 4.11324 5.2432 4.1115 5.24901C4.0765 5.38401 4.0415 5.51901 4.0075 5.65401C4.0005 5.68151 3.9855 5.69901 3.9625 5.70501C3.94 5.71101 3.9185 5.70351 3.8985 5.68251C3.801 5.58301 3.7035 5.48402 3.605 5.38502C3.59613 5.3769 3.58553 5.37091 3.574 5.36751L3.169 5.26301C3.141 5.25601 3.124 5.24101 3.1175 5.21801C3.112 5.19601 3.1195 5.17451 3.14 5.15401C3.24 5.05701 3.339 4.95901 3.438 4.86151C3.44242 4.85712 3.44613 4.85206 3.449 4.84651C3.45202 4.84151 3.45437 4.83613 3.456 4.83051C3.491 4.69551 3.526 4.56051 3.56 4.42551C3.567 4.39751 3.582 4.38051 3.605 4.37401Z" fill="white"/>
<path fill-rule="evenodd" clip-rule="evenodd" d="M7.91351 4.65498C7.94119 4.65361 7.96885 4.65788 7.99482 4.66752C8.0208 4.67717 8.04454 4.69199 8.06461 4.7111C8.08468 4.7302 8.10066 4.75318 8.11157 4.77864C8.12249 4.80411 8.12812 4.83152 8.12812 4.85923C8.12812 4.88694 8.12249 4.91435 8.11157 4.93982C8.10066 4.96528 8.08468 4.98826 8.06461 5.00736C8.04454 5.02647 8.0208 5.04129 7.99482 5.05094C7.96885 5.06058 7.94119 5.06485 7.91351 5.06348C7.85928 5.06348 7.80726 5.04193 7.76891 5.00358C7.73056 4.96523 7.70901 4.91322 7.70901 4.85898C7.70901 4.80474 7.73056 4.75273 7.76891 4.71438C7.80726 4.67603 7.85928 4.65448 7.91351 4.65448V4.65498Z" fill="white"/>
<path fill-rule="evenodd" clip-rule="evenodd" d="M7.0355 3.45751C7.0585 3.45151 7.0805 3.45901 7.1005 3.47951C7.1975 3.57951 7.2945 3.67851 7.392 3.77751C7.40078 3.78585 7.4114 3.79202 7.423 3.79551L7.8265 3.90051C7.8545 3.90751 7.8715 3.92301 7.878 3.94551C7.884 3.96801 7.8765 3.98951 7.8555 4.00951L7.5575 4.30101C7.5494 4.30978 7.54326 4.32018 7.5395 4.33151L7.4345 4.73551C7.4275 4.76351 7.4125 4.78051 7.3895 4.78701C7.367 4.79251 7.3455 4.78501 7.3255 4.76451C7.2285 4.66451 7.131 4.56551 7.034 4.46651C7.0296 4.46209 7.02454 4.45838 7.019 4.45551C7.01403 4.45241 7.00864 4.45005 7.003 4.44851L6.599 4.34351C6.571 4.33651 6.554 4.32151 6.548 4.29851C6.542 4.27601 6.5495 4.25501 6.57 4.23451C6.67 4.13751 6.769 4.04051 6.868 3.94301C6.87243 3.93862 6.87614 3.93356 6.879 3.92801C6.8822 3.92304 6.88472 3.91766 6.8865 3.91201L6.9915 3.50901C6.9985 3.48051 7.013 3.46401 7.0355 3.45751Z" fill="white"/>
<path fill-rule="evenodd" clip-rule="evenodd" d="M4.043 0.22849C4.52464 0.0304815 5.04895 -0.0409521 5.566 0.0209896C6.2325 0.0974896 6.8265 0.38099 7.348 0.87099C7.355 0.87768 7.36356 0.882512 7.37291 0.885044C7.38225 0.887577 7.39208 0.88773 7.4015 0.88549C8.106 0.71249 8.7825 0.77349 9.4325 1.06849L9.463 1.08299L9.5405 1.12149C10.219 1.47299 10.7055 2.00599 10.9995 2.71999C11.1385 3.05999 11.2085 3.41399 11.21 3.78349C11.2198 4.05825 11.1895 4.33298 11.12 4.59899C11.1165 4.61247 11.1165 4.62661 11.12 4.64008C11.1235 4.65355 11.1304 4.66591 11.14 4.67599C11.533 5.07467 11.8062 5.57568 11.9285 6.12199C12.1215 7.07249 11.9245 7.92899 11.3375 8.69199L11.247 8.80199C10.8583 9.24679 10.348 9.5683 9.779 9.72699C9.76668 9.73068 9.75543 9.73729 9.7462 9.74625C9.73697 9.75522 9.73005 9.76628 9.726 9.77849C9.5985 10.1465 9.47 10.4605 9.232 10.7745C8.6325 11.5655 7.751 12.0055 6.758 11.9995C5.9665 11.996 5.265 11.7065 4.653 11.1315C4.64376 11.1229 4.6324 11.117 4.6201 11.1143C4.6078 11.1115 4.595 11.1121 4.583 11.116C4.324 11.1995 4.063 11.2115 3.7805 11.2085C3.33015 11.2048 2.88656 11.0984 2.4835 10.8975C2.06144 10.6882 1.69404 10.3832 1.4105 10.007C1.309 9.87199 1.2085 9.74599 1.1345 9.59649C1.03331 9.3904 0.95065 9.17572 0.887503 8.95499C0.754463 8.45318 0.751537 7.92574 0.879003 7.42249C0.883004 7.41059 0.884202 7.39793 0.882503 7.38549C0.880165 7.37328 0.873833 7.3622 0.864503 7.35399C0.556241 7.04227 0.32063 6.66632 0.174503 6.25299C0.0776412 5.99836 0.0214539 5.73008 0.00800343 5.45799C-0.0161045 5.10026 0.0156083 4.74096 0.102003 4.39299C0.327003 3.65049 0.756503 3.06799 1.391 2.64599C1.532 2.55199 1.6655 2.47899 1.791 2.42649C1.93175 2.36803 2.07564 2.31745 2.222 2.27499C2.23232 2.27198 2.24172 2.26641 2.24932 2.25881C2.25693 2.25121 2.26249 2.24181 2.2655 2.23149C2.37455 1.83861 2.56236 1.47202 2.8175 1.15399C3.1575 0.73149 3.566 0.42299 4.043 0.22849ZM4.5255 4.05199C3.9485 3.64199 3.1605 3.84549 2.87 4.48949C2.7195 4.82249 2.69 5.17349 2.781 5.54249L2.8535 5.83549L2.9835 6.31049C3.036 6.57699 3.1385 6.82049 3.2895 7.04149L3.3045 7.06299C3.3845 7.15749 3.472 7.24399 3.5665 7.32199C4.2595 7.89149 5.204 7.51149 5.3925 6.66049L5.4175 6.55399L5.4235 6.51399C5.4535 6.31399 5.4445 6.11799 5.397 5.92649C5.31343 5.5872 5.22241 5.24978 5.124 4.91449C5.0155 4.54549 4.816 4.25799 4.5255 4.05199ZM8.0775 3.22899C7.6465 2.82799 6.982 2.81349 6.554 3.21599C6.387 3.37299 6.271 3.58399 6.2055 3.84849C6.14039 4.1171 6.14039 4.39738 6.2055 4.66599L6.2125 4.69299L6.24 4.78299C6.3035 4.99299 6.3625 5.19999 6.4165 5.40349C6.4725 5.61499 6.5175 5.75649 6.5515 5.82849C6.8385 6.43149 7.4615 6.86549 8.14 6.58949C8.7705 6.33249 8.9605 5.58449 8.8175 4.97949C8.796 4.88799 8.7725 4.79699 8.7475 4.70649C8.68239 4.44267 8.61103 4.18043 8.5335 3.91999C8.4525 3.66599 8.3005 3.43599 8.0775 3.22899Z" fill="white"/>
</g>
<defs>
<clipPath id="clip0_5984_9">
<rect width="12" height="12" fill="white"/>
</clipPath>
</defs>
</svg>
