<svg width="56" height="56" viewBox="0 0 56 56" fill="none" xmlns="http://www.w3.org/2000/svg">
<g clip-path="url(#clip0_6983_64)">
<path d="M19.934 37.3842C19.5301 34.6714 17.006 32.8002 14.2944 33.203C11.5826 33.6024 9.70827 36.1288 10.1108 38.8416L10.3878 40.7082C9.30774 40.9597 8.57963 41.9934 8.74511 43.1099L9.57571 48.7131C9.74119 49.8285 10.7374 50.6063 11.8439 50.5345L12.027 51.7647C12.4286 54.4775 14.9517 56.3497 17.6655 55.9471C20.3773 55.5454 22.2495 53.0224 21.849 50.3086L19.934 37.3842Z" fill="black"/>
<path d="M45.6139 40.7081L45.8908 38.8416C46.2936 36.1287 44.4192 33.6024 41.7075 33.2029C38.9957 32.8003 36.4715 34.6714 36.0678 37.3841L34.1526 50.3084C33.7521 53.0222 35.6242 55.5453 38.336 55.9469C41.05 56.3495 43.5731 54.4774 43.9745 51.7645L44.1576 50.5344C45.2641 50.6062 46.2604 49.8283 46.4259 48.713L47.2565 43.1098C47.4221 41.9934 46.694 40.9597 45.6139 40.7081Z" fill="black"/>
<path d="M47.7647 8.26101C42.8675 3.03726 35.9062 -0.00992882 28.0005 2.43071e-05C20.0948 -0.00992882 13.1334 3.03726 8.23639 8.26101C3.33026 13.4782 0.500513 20.8101 0.504888 29.2167C0.504888 30.1578 0.540216 31.1132 0.611857 32.0807C1.18564 39.8794 2.5712 46.0772 3.15362 48.6919L7.56428 47.7099C6.99061 45.135 5.66903 39.2064 5.11734 31.7474C5.05456 30.8893 5.02361 30.0452 5.02361 29.2167C5.02798 21.8097 7.48378 15.6636 11.5293 11.3556C15.5847 7.05296 21.24 4.52881 28.0005 4.51885C34.7599 4.52881 40.416 7.05307 44.4716 11.3556C48.517 15.6635 50.9728 21.8096 50.9772 29.2167C50.9772 30.0452 50.9463 30.8893 50.8835 31.7485C50.332 39.2064 49.0102 45.135 48.4365 47.7099L52.8472 48.6919C53.4297 46.0772 54.8154 39.8794 55.389 32.0807C55.4608 31.112 55.496 30.1577 55.496 29.2167C55.5005 20.81 52.6708 13.4781 47.7647 8.26101Z" fill="black"/>
</g>
<defs>
<clipPath id="clip0_6983_64">
<rect width="56" height="56" fill="white"/>
</clipPath>
</defs>
</svg>
