<svg width="12" height="14" viewBox="0 0 12 14" fill="none" xmlns="http://www.w3.org/2000/svg">
<path d="M9.02512 4.58977C8.93447 4.26605 8.80718 3.98002 8.64313 3.73169C8.47912 3.47892 8.27843 3.26606 8.04105 3.09311C7.80798 2.91573 7.54038 2.78047 7.23825 2.68735C6.94042 2.59422 6.61024 2.54766 6.24765 2.54766C5.57002 2.54766 4.9744 2.72061 4.46078 3.0665C3.95146 3.4124 3.55437 3.91573 3.26951 4.57647C2.98464 5.23279 2.8422 6.03544 2.8422 6.98445C2.8422 7.93343 2.98248 8.74054 3.26303 9.4057C3.54358 10.0709 3.94067 10.5787 4.45429 10.929C4.96791 11.2749 5.57433 11.4478 6.27358 11.4478C6.90804 11.4478 7.44973 11.3325 7.89859 11.1019C8.35179 10.8669 8.6971 10.5365 8.93447 10.1108C9.17619 9.6851 9.29706 9.18178 9.29706 8.60084L9.8668 8.68731H6.44838V6.51882H11.9968V8.23497C11.9968 9.43234 11.7508 10.4612 11.2587 11.3215C10.7667 12.1773 10.0891 12.8381 9.22585 13.3037C8.36259 13.7649 7.37418 13.9955 6.26063 13.9955C5.01757 13.9955 3.92558 13.7139 2.98464 13.1507C2.04371 12.5831 1.30996 11.7782 0.783384 10.7361C0.261129 9.68952 0 8.44784 0 7.01105C0 5.90682 0.155382 4.92237 0.466148 4.05764C0.781229 3.18845 1.22148 2.45232 1.7869 1.84921C2.35232 1.24611 3.01053 0.787136 3.76156 0.472284C4.51256 0.157427 5.32616 0 6.20233 0C6.95336 0 7.65258 0.113081 8.30001 0.339245C8.94745 0.560974 9.52149 0.87583 10.0222 1.28381C10.5271 1.69179 10.9394 2.17737 11.2587 2.74056C11.5782 3.29932 11.7832 3.91573 11.8738 4.58977H9.02512Z" fill="url(#paint0_linear_292_283)"/>
<path fill-rule="evenodd" clip-rule="evenodd" d="M9.77974 6.2706L6.72144 4.35795C6.20942 4.03794 5.57227 4.44281 5.57227 5.08706V8.91217C5.57227 9.55725 6.20942 9.96129 6.72144 9.64128L9.77974 7.72957C10.2956 7.40705 10.2956 6.59312 9.77974 6.2706Z" fill="url(#paint1_linear_292_283)"/>
<defs>
<linearGradient id="paint0_linear_292_283" x1="5.68047" y1="-2.22127" x2="5.68047" y2="16.2144" gradientUnits="userSpaceOnUse">
<stop offset="0.610577" stop-color="white"/>
<stop offset="0.831731" stop-color="#999999"/>
</linearGradient>
<linearGradient id="paint1_linear_292_283" x1="7.86944" y1="9.75325" x2="7.86944" y2="4.24609" gradientUnits="userSpaceOnUse">
<stop stop-color="#22D3EE"/>
<stop offset="1" stop-color="#60A5FA"/>
</linearGradient>
</defs>
</svg>
