<svg width="13438" height="4921" viewBox="0 0 13438 4921" fill="none" xmlns="http://www.w3.org/2000/svg">
<path d="M973.011 642.636L1851.92 3405.42H1885.65L2766.34 642.636H3618.61L2365.06 4279H1374.29L118.963 642.636H973.011ZM6262.43 1818.06C6237.57 1731.65 6202.65 1655.3 6157.67 1589.01C6112.69 1521.54 6057.65 1464.72 5992.54 1418.56C5928.62 1371.21 5855.23 1335.11 5772.37 1310.25C5690.7 1285.39 5600.14 1272.96 5500.71 1272.96C5314.87 1272.96 5151.52 1319.13 5010.65 1411.46C4870.98 1503.79 4762.07 1638.14 4683.95 1814.51C4605.82 1989.7 4566.76 2203.95 4566.76 2457.27C4566.76 2710.58 4605.23 2926.02 4682.17 3103.57C4759.11 3281.13 4868.02 3416.67 5008.88 3510.18C5149.74 3602.51 5316.05 3648.67 5507.81 3648.67C5681.82 3648.67 5830.37 3617.9 5953.48 3556.34C6077.77 3493.61 6172.47 3405.42 6237.57 3291.78C6303.86 3178.15 6337 3043.8 6337 2888.73L6493.25 2911.81H5555.75V2332.98H7077.41V2791.07C7077.41 3110.68 7009.94 3385.3 6875 3614.94C6740.06 3843.39 6554.21 4019.77 6317.47 4144.06C6080.73 4267.16 5809.66 4328.72 5504.26 4328.72C5163.35 4328.72 4863.87 4253.55 4605.82 4103.22C4347.77 3951.7 4146.54 3736.86 4002.13 3458.69C3858.9 3179.33 3787.29 2847.89 3787.29 2464.37C3787.29 2169.62 3829.9 1906.84 3915.13 1676.02C4001.54 1444.01 4122.28 1247.51 4277.34 1086.53C4432.41 925.543 4612.93 803.029 4818.89 718.986C5024.86 634.942 5247.99 592.92 5488.28 592.92C5694.25 592.92 5886.01 623.105 6063.57 683.474C6241.12 742.66 6398.56 826.704 6535.87 935.605C6674.36 1044.51 6787.41 1174.12 6875 1324.45C6962.59 1473.6 7018.82 1638.14 7043.68 1818.06H6262.43ZM8883.61 4332.27C8603.07 4332.27 8361.59 4275.45 8159.18 4161.81C7957.95 4046.99 7802.88 3884.82 7693.98 3675.31C7585.08 3464.61 7530.63 3215.43 7530.63 2927.79C7530.63 2647.25 7585.08 2401.04 7693.98 2189.16C7802.88 1977.27 7956.17 1812.14 8153.85 1693.77C8352.72 1575.4 8585.91 1516.22 8853.43 1516.22C9033.35 1516.22 9200.85 1545.22 9355.91 1603.22C9512.16 1660.04 9648.29 1745.86 9764.29 1860.68C9881.48 1975.5 9972.63 2119.91 10037.7 2293.91C10102.8 2466.74 10135.4 2669.15 10135.4 2901.16V3108.9H7832.48V2640.15H9423.38C9423.38 2531.25 9399.71 2434.78 9352.36 2350.73C9305.01 2266.69 9239.32 2200.99 9155.27 2153.64C9072.41 2105.11 8975.94 2080.85 8865.86 2080.85C8751.04 2080.85 8649.24 2107.48 8560.46 2160.75C8472.86 2212.83 8404.21 2283.26 8354.49 2372.04C8304.78 2459.63 8279.33 2557.29 8278.14 2665.01V3110.68C8278.14 3245.62 8303 3362.21 8352.72 3460.46C8403.62 3558.71 8475.23 3634.47 8567.56 3687.74C8659.89 3741 8769.38 3767.64 8896.04 3767.64C8980.08 3767.64 9057.03 3755.8 9126.86 3732.12C9196.7 3708.45 9256.48 3672.94 9306.2 3625.59C9355.91 3578.24 9393.79 3520.24 9419.83 3451.59L10119.4 3497.75C10083.9 3665.84 10011.1 3812.62 9901.01 3938.09C9792.11 4062.38 9651.25 4159.45 9478.43 4229.28C9306.79 4297.94 9108.52 4332.27 8883.61 4332.27ZM11385.4 2702.3V4279H10629V1551.73H11349.9V2032.91H11381.8C11442.2 1874.29 11543.4 1748.82 11685.5 1656.49C11827.5 1562.97 11999.7 1516.22 12202.1 1516.22C12391.5 1516.22 12556.7 1557.65 12697.5 1640.51C12838.4 1723.37 12947.9 1841.74 13026 1995.62C13104.1 2148.32 13143.2 2330.61 13143.2 2542.49V4279H12386.8V2677.44C12388 2510.53 12345.4 2380.33 12259 2286.81C12172.6 2192.12 12053.6 2144.77 11902.1 2144.77C11800.3 2144.77 11710.3 2166.67 11632.2 2210.46C11555.2 2254.26 11494.9 2318.18 11451.1 2402.22C11408.5 2485.08 11386.6 2585.11 11385.4 2702.3Z" fill="black"/>
<path fill-rule="evenodd" clip-rule="evenodd" d="M6616 2461C6616 2390.81 6580.07 2320.62 6508.2 2281.5L5640.36 1809.14C5500.67 1733.1 5329 1832.07 5329 1988.63V2461H6616Z" fill="#22D3EE"/>
<path d="M5640.36 3112.86L6508.2 2640.49C6580.07 2601.38 6616 2531.19 6616 2461H5329V2933.37C5329 3089.93 5500.67 3188.9 5640.36 3112.86Z" fill="#60A5FA"/>
</svg>
