<svg width="11" height="11" viewBox="0 0 11 11" fill="none" xmlns="http://www.w3.org/2000/svg">
<path d="M5.80224 0.170083C5.99874 0.515083 6.19424 0.861083 6.38924 1.20758C6.39713 1.22144 6.40855 1.23295 6.42234 1.24095C6.43613 1.24894 6.4518 1.25313 6.46774 1.25308H9.24374C9.33074 1.25308 9.40474 1.30808 9.46674 1.41658L10.1937 2.70158C10.2887 2.87008 10.3137 2.94058 10.2057 3.12008C10.0757 3.33508 9.94924 3.55208 9.82574 3.77008L9.64224 4.09908C9.58924 4.19708 9.53074 4.23908 9.62224 4.35508L10.9482 6.67358C11.0342 6.82408 11.0037 6.92058 10.9267 7.05858C10.7082 7.45108 10.4857 7.84058 10.2592 8.22858C10.1797 8.36458 10.0832 8.41608 9.91924 8.41358C9.53074 8.40558 9.14324 8.40858 8.75574 8.42158C8.74744 8.42201 8.73937 8.42453 8.73229 8.4289C8.72521 8.43327 8.71935 8.43935 8.71524 8.44658C8.26816 9.23872 7.81732 10.0287 7.36274 10.8166C7.27824 10.9631 7.17274 10.9981 7.00024 10.9986C6.50174 11.0001 5.99924 11.0006 5.49174 10.9996C5.44449 10.9995 5.39812 10.9869 5.35729 10.9631C5.31647 10.9393 5.28265 10.9051 5.25924 10.8641L4.59174 9.70258C4.58786 9.69499 4.5819 9.68865 4.57455 9.68431C4.5672 9.67997 4.55877 9.67781 4.55024 9.67808H1.99124C1.84874 9.69308 1.71474 9.67758 1.58874 9.63208L0.787244 8.24708C0.76354 8.20608 0.750976 8.15958 0.750801 8.11222C0.750626 8.06485 0.762844 8.01826 0.786244 7.97708L1.38974 6.91708C1.39834 6.90209 1.40286 6.88511 1.40286 6.86783C1.40286 6.85055 1.39834 6.83357 1.38974 6.81858C1.07538 6.27432 0.762877 5.72898 0.452244 5.18258L0.0572439 4.48508C-0.0227561 4.33008 -0.029256 4.23708 0.104744 4.00258C0.337244 3.59608 0.568244 3.19008 0.798244 2.78458C0.864244 2.66758 0.950244 2.61758 1.09024 2.61708C1.52174 2.61527 1.95324 2.6151 2.38474 2.61658C2.39564 2.6165 2.40633 2.61354 2.41572 2.60801C2.42511 2.60248 2.43288 2.59457 2.43824 2.58508L3.84124 0.137583C3.86251 0.100349 3.8932 0.0693762 3.93025 0.0477828C3.96729 0.0261894 4.00937 0.0147383 4.05224 0.0145827C4.31424 0.0140827 4.57874 0.0145827 4.84374 0.0115827L5.35224 8.26591e-05C5.52274 -0.00141734 5.71424 0.0160827 5.80224 0.170083ZM4.08624 0.371583C4.08097 0.371579 4.0758 0.372964 4.07123 0.375597C4.06667 0.37823 4.06288 0.382019 4.06024 0.386583L2.62724 2.89408C2.62036 2.9059 2.61052 2.91571 2.59868 2.92255C2.58684 2.92939 2.57342 2.93302 2.55974 2.93308H1.12674C1.09874 2.93308 1.09174 2.94558 1.10624 2.97008L4.01124 8.04808C4.02374 8.06908 4.01774 8.07908 3.99424 8.07958L2.59674 8.08708C2.57631 8.0864 2.5561 8.09148 2.53842 8.10173C2.52074 8.11199 2.5063 8.12701 2.49674 8.14508L1.83674 9.30008C1.81474 9.33908 1.82624 9.35908 1.87074 9.35908L4.72874 9.36308C4.75174 9.36308 4.76874 9.37308 4.78074 9.39358L5.48224 10.6206C5.50524 10.6611 5.52824 10.6616 5.55174 10.6206L8.05474 6.24058L8.44624 5.54958C8.44863 5.54531 8.45211 5.54176 8.45633 5.53929C8.46055 5.53681 8.46535 5.53551 8.47024 5.53551C8.47513 5.53551 8.47994 5.53681 8.48416 5.53929C8.48837 5.54176 8.49186 5.54531 8.49424 5.54958L9.20624 6.81458C9.21159 6.82405 9.21937 6.83191 9.22878 6.83736C9.23818 6.84281 9.24887 6.84565 9.25974 6.84558L10.6412 6.83558C10.6448 6.83561 10.6483 6.83471 10.6513 6.83295C10.6544 6.83119 10.657 6.82865 10.6587 6.82558C10.6605 6.82253 10.6613 6.81908 10.6613 6.81558C10.6613 6.81208 10.6605 6.80864 10.6587 6.80558L9.20874 4.26258C9.20353 4.25408 9.20077 4.24431 9.20077 4.23433C9.20077 4.22436 9.20353 4.21458 9.20874 4.20608L9.35524 3.95258L9.91524 2.96408C9.92724 2.94358 9.92124 2.93308 9.89774 2.93308H4.10024C4.07074 2.93308 4.06374 2.92008 4.07874 2.89458L4.79574 1.64208C4.80112 1.63355 4.80397 1.62367 4.80397 1.61358C4.80397 1.6035 4.80112 1.59362 4.79574 1.58508L4.11274 0.387083C4.11013 0.382352 4.10629 0.378414 4.10163 0.375686C4.09696 0.372958 4.09165 0.37154 4.08624 0.371583ZM7.23124 4.38158C7.25424 4.38158 7.26024 4.39158 7.24824 4.41158L6.83224 5.14408L5.52574 7.43658C5.52329 7.44104 5.51966 7.44475 5.51526 7.44731C5.51085 7.44986 5.50584 7.45117 5.50074 7.45108C5.49567 7.45106 5.4907 7.44971 5.48631 7.44717C5.48192 7.44462 5.47828 7.44097 5.47574 7.43658L3.74924 4.42058C3.73924 4.40358 3.74424 4.39458 3.76324 4.39358L3.87124 4.38758L7.23224 4.38158H7.23124Z" fill="url(#paint0_linear_292_225)"/>
<defs>
<linearGradient id="paint0_linear_292_225" x1="0" y1="0" x2="1100.01" y2="0" gradientUnits="userSpaceOnUse">
<stop stop-color="#6336E7" stop-opacity="0.84"/>
<stop offset="1" stop-color="#6F69F7" stop-opacity="0.84"/>
</linearGradient>
</defs>
</svg>
