<svg width="1526" height="269" viewBox="0 0 1526 269" fill="none" xmlns="http://www.w3.org/2000/svg">
<path d="M1112.03 268.796C1100.02 268.796 1089.32 266.713 1079.93 262.548C1070.54 258.301 1063.11 252.052 1057.63 243.803C1052.24 235.472 1049.55 225.099 1049.55 212.684C1049.55 202.23 1051.47 193.45 1055.31 186.344C1059.14 179.238 1064.37 173.521 1070.99 169.192C1077.6 164.863 1085.12 161.596 1093.53 159.391C1102.02 157.185 1110.93 155.634 1120.24 154.735C1131.18 153.592 1140 152.53 1146.7 151.55C1153.4 150.488 1158.26 148.936 1161.28 146.894C1164.3 144.852 1165.81 141.83 1165.81 137.828V137.093C1165.81 129.334 1163.36 123.331 1158.46 119.084C1153.64 114.836 1146.78 112.713 1137.88 112.713C1128.49 112.713 1121.01 114.796 1115.46 118.961C1109.91 123.045 1106.23 128.19 1104.43 134.398L1056.16 130.477C1058.61 119.043 1063.43 109.16 1070.62 100.829C1077.81 92.4163 1087.08 85.9643 1098.43 81.4723C1109.87 76.8983 1123.1 74.6113 1138.13 74.6113C1148.58 74.6113 1158.59 75.8363 1168.14 78.2863C1177.78 80.7373 1186.31 84.5353 1193.75 89.6803C1201.26 94.8263 1207.18 101.442 1211.51 109.527C1215.84 117.532 1218 127.129 1218 138.318V265.243H1168.51V239.147H1167.04C1164.02 245.028 1159.97 250.215 1154.91 254.707C1149.85 259.117 1143.76 262.589 1136.66 265.12C1129.55 267.571 1121.34 268.796 1112.03 268.796ZM1126.98 232.777C1134.65 232.777 1141.43 231.266 1147.31 228.244C1153.19 225.14 1157.81 220.975 1161.16 215.747C1164.51 210.52 1166.18 204.598 1166.18 197.983V178.013C1164.55 179.075 1162.3 180.055 1159.44 180.953C1156.67 181.77 1153.52 182.546 1150.01 183.281C1146.5 183.934 1142.98 184.547 1139.47 185.119C1135.96 185.609 1132.78 186.058 1129.92 186.466C1123.79 187.365 1118.44 188.794 1113.87 190.754C1109.29 192.715 1105.74 195.369 1103.21 198.718C1100.68 201.985 1099.41 206.069 1099.41 210.969C1099.41 218.075 1101.98 223.506 1107.13 227.264C1112.36 230.939 1118.97 232.777 1126.98 232.777ZM1258.5 265.243V77.0613H1310.69V265.243H1258.5ZM1284.71 52.8033C1276.95 52.8033 1270.3 50.2313 1264.74 45.0853C1259.27 39.8583 1256.54 33.6093 1256.54 26.3406C1256.54 19.1531 1259.27 12.9865 1264.74 7.841C1270.3 2.6137 1276.95 0 1284.71 0C1292.47 0 1299.09 2.6137 1304.56 7.841C1310.11 12.9865 1312.89 19.1531 1312.89 26.3406C1312.89 33.6093 1310.11 39.8583 1304.56 45.0853C1299.09 50.2313 1292.47 52.8033 1284.71 52.8033Z" fill="url(#paint0_linear_7489_89)"/>
<path d="M235.379 139.787C235.379 167.149 230.193 190.427 219.82 209.621C209.529 228.814 195.48 243.475 177.675 253.603C159.951 263.649 140.022 268.672 117.888 268.672C95.591 268.672 75.58 263.608 57.856 253.481C40.132 243.353 26.125 228.692 15.834 209.498C5.54298 190.304 0.396973 167.067 0.396973 139.787C0.396973 112.426 5.54298 89.1479 15.834 69.9538C26.125 50.7598 40.132 36.1398 57.856 26.0941C75.58 15.9662 95.591 10.9023 117.888 10.9023C140.022 10.9023 159.951 15.9662 177.675 26.0941C195.48 36.1398 209.529 50.7598 219.82 69.9538C230.193 89.1479 235.379 112.426 235.379 139.787ZM181.596 139.787C181.596 122.064 178.941 107.117 173.632 94.9468C168.405 82.7778 161.013 73.5478 151.457 67.2588C141.901 60.9698 130.711 57.8248 117.888 57.8248C105.065 57.8248 93.875 60.9698 84.319 67.2588C74.763 73.5478 67.331 82.7778 62.022 94.9468C56.794 107.117 54.181 122.064 54.181 139.787C54.181 157.511 56.794 172.458 62.022 184.628C67.331 196.797 74.763 206.027 84.319 212.316C93.875 218.605 105.065 221.749 117.888 221.749C130.711 221.749 141.901 218.605 151.457 212.316C161.013 206.027 168.405 196.797 173.632 184.628C178.941 172.458 181.596 157.511 181.596 139.787ZM325.887 156.449V265.242H273.696V77.0598H323.436V110.262H325.642C329.807 99.3168 336.79 90.6588 346.592 84.2888C356.393 77.8358 368.277 74.6098 382.243 74.6098C395.311 74.6098 406.705 77.4688 416.425 83.1858C426.144 88.9028 433.699 97.0709 439.09 107.689C444.48 118.225 447.176 130.803 447.176 145.423V265.242H394.985V154.734C395.066 143.218 392.126 134.233 386.164 127.781C380.201 121.247 371.993 117.98 361.538 117.98C354.514 117.98 348.307 119.491 342.916 122.513C337.607 125.535 333.442 129.945 330.42 135.744C327.479 141.462 325.968 148.363 325.887 156.449ZM574.07 268.917C554.713 268.917 538.051 264.997 524.084 257.156C510.199 249.233 499.499 238.044 491.985 223.587C484.471 209.049 480.714 191.856 480.714 172.009C480.714 152.651 484.471 135.663 491.985 121.043C499.499 106.423 510.077 95.0288 523.716 86.8608C537.438 78.6938 553.528 74.6098 571.987 74.6098C584.402 74.6098 595.959 76.6108 606.659 80.6128C617.44 84.5338 626.833 90.4548 634.837 98.3778C642.923 106.3 649.212 116.265 653.704 128.271C658.196 140.196 660.442 154.162 660.442 170.171V184.505H501.541V152.161H611.314C611.314 144.647 609.681 137.991 606.414 132.192C603.146 126.393 598.613 121.86 592.814 118.592C587.097 115.244 580.441 113.569 572.845 113.569C564.922 113.569 557.898 115.407 551.772 119.083C545.728 122.676 540.991 127.536 537.561 133.662C534.13 139.706 532.374 146.444 532.292 153.877V184.628C532.292 193.939 534.008 201.984 537.438 208.763C540.95 215.542 545.892 220.769 552.262 224.445C558.633 228.12 566.188 229.958 574.927 229.958C580.726 229.958 586.035 229.141 590.854 227.508C595.673 225.874 599.798 223.424 603.228 220.157C606.659 216.89 609.272 212.888 611.069 208.15L659.34 211.336C656.889 222.934 651.866 233.062 644.27 241.719C636.756 250.295 627.037 256.993 615.112 261.812C603.269 266.549 589.588 268.917 574.07 268.917ZM695.48 265.242V14.3327H795.94C814.4 14.3327 829.8 17.0689 842.13 22.5412C854.46 28.0135 863.73 35.6098 869.94 45.3288C876.15 54.9668 879.25 66.0748 879.25 78.6528C879.25 88.4538 877.29 97.0708 873.37 104.503C869.45 111.854 864.06 117.898 857.2 122.635C850.42 127.291 842.66 130.599 833.92 132.559V135.009C843.48 135.418 852.42 138.113 860.75 143.095C869.17 148.078 875.99 155.061 881.21 164.045C886.44 172.948 889.05 183.566 889.05 195.899C889.05 209.212 885.75 221.096 879.13 231.551C872.6 241.923 862.92 250.132 850.09 256.176C837.27 262.22 821.47 265.242 802.68 265.242H695.48ZM748.53 221.872H791.78C806.56 221.872 817.34 219.054 824.12 213.418C830.9 207.701 834.29 200.105 834.29 190.631C834.29 183.688 832.62 177.563 829.27 172.254C825.92 166.945 821.14 162.779 814.93 159.757C808.81 156.735 801.5 155.224 793 155.224H748.53V221.872ZM748.53 119.328H787.86C795.13 119.328 801.58 118.062 807.21 115.53C812.93 112.916 817.42 109.241 820.69 104.503C824.04 99.7658 825.71 94.0898 825.71 87.4738C825.71 78.4078 822.49 71.0978 816.04 65.5438C809.66 59.9898 800.6 57.2128 788.84 57.2128H748.53V119.328ZM922.59 265.242V77.0598H973.19V109.894H975.15C978.58 98.2138 984.34 89.3928 992.43 83.4308C1000.51 77.3868 1009.82 74.3648 1020.36 74.3648C1022.97 74.3648 1025.79 74.5279 1028.81 74.8549C1031.83 75.1819 1034.49 75.6308 1036.78 76.2028V122.513C1034.33 121.778 1030.94 121.124 1026.61 120.553C1022.28 119.981 1018.32 119.695 1014.72 119.695C1007.05 119.695 1000.18 121.369 994.14 124.718C988.18 127.985 983.44 132.559 979.93 138.44C976.5 144.32 974.78 151.1 974.78 158.777V265.242H922.59ZM1404.69 156.449V265.242H1352.49V77.0598H1402.24V110.262H1404.44C1408.61 99.3168 1415.59 90.6588 1425.39 84.2888C1435.19 77.8358 1447.08 74.6098 1461.04 74.6098C1474.11 74.6098 1485.5 77.4688 1495.22 83.1858C1504.94 88.9028 1512.5 97.0709 1517.89 107.689C1523.28 118.225 1525.97 130.803 1525.97 145.423V265.242H1473.78V154.734C1473.87 143.218 1470.92 134.233 1464.96 127.781C1459 121.247 1450.79 117.98 1440.34 117.98C1433.31 117.98 1427.11 119.491 1421.71 122.513C1416.41 125.535 1412.24 129.945 1409.22 135.744C1406.28 141.462 1404.77 148.363 1404.69 156.449Z" fill="white"/>
<defs>
<linearGradient id="paint0_linear_7489_89" x1="-17.0001" y1="140.743" x2="1553" y2="140.743" gradientUnits="userSpaceOnUse">
<stop stop-color="#22D3EE"/>
<stop offset="1" stop-color="#60A5FA"/>
</linearGradient>
</defs>
</svg>
