<svg width="147" height="47" viewBox="0 0 147 47" fill="none" xmlns="http://www.w3.org/2000/svg">
<g filter="url(#filter0_d_5992_163)">
<path d="M9.64464 5.02344V30.5912H4V5.02344H9.64464ZM14.1844 30.5912V11.4154H19.4771V14.7987H19.7117C20.1289 13.675 20.8241 12.7887 21.7975 12.1395C22.7709 11.4903 23.9354 11.1657 25.2911 11.1657C26.6643 11.1657 27.8332 11.4944 28.7979 12.1519C29.7625 12.8011 30.4057 13.6834 30.7272 14.7987H30.9357C31.3442 13.7 32.0829 12.8219 33.1519 12.1644C34.2295 11.4986 35.5027 11.1657 36.9715 11.1657C38.84 11.1657 40.3565 11.7358 41.5211 12.8761C42.6943 14.0079 43.2809 15.6143 43.2809 17.695V30.5912H37.7406V18.7436C37.7406 17.6783 37.4451 16.8793 36.8541 16.3467C36.2632 15.814 35.5244 15.5477 34.6381 15.5477C33.6299 15.5477 32.8434 15.8557 32.2785 16.4715C31.7136 17.0791 31.4312 17.8822 31.4312 18.881V30.5912H26.0473V18.6313C26.0473 17.6908 25.7648 16.9418 25.1999 16.3841C24.6437 15.8265 23.9093 15.5477 22.9968 15.5477C22.3798 15.5477 21.8235 15.6975 21.3282 15.9971C20.8415 16.2884 20.4548 16.7004 20.1679 17.2331C19.8812 17.7574 19.7378 18.3733 19.7378 19.0807V30.5912H14.1844ZM53.3773 30.9533C52.0998 30.9533 50.9613 30.7411 49.9619 30.3166C48.9625 29.8838 48.1716 29.2471 47.5893 28.4065C47.0158 27.5576 46.7289 26.5005 46.7289 25.2355C46.7289 24.1701 46.9332 23.2755 47.3417 22.5513C47.7501 21.8273 48.3063 21.2447 49.0103 20.8035C49.7142 20.3625 50.5138 20.0296 51.4089 19.8048C52.3128 19.5801 53.26 19.422 54.2508 19.3304C55.4154 19.2139 56.354 19.1057 57.0666 19.0058C57.7792 18.8976 58.2963 18.7395 58.6178 18.5314C58.9394 18.3234 59.1002 18.0154 59.1002 17.6076V17.5327C59.1002 16.742 58.8395 16.1303 58.318 15.6975C57.8053 15.2647 57.0752 15.0483 56.128 15.0483C55.1285 15.0483 54.3333 15.2605 53.7424 15.685C53.1514 16.1012 52.7603 16.6255 52.5691 17.258L47.4329 16.8585C47.6937 15.6933 48.2064 14.6862 48.9711 13.8374C49.736 12.9801 50.7223 12.3226 51.9304 11.8648C53.1471 11.3988 54.555 11.1657 56.154 11.1657C57.2665 11.1657 58.3311 11.2905 59.3478 11.5402C60.3734 11.7899 61.2816 12.177 62.0724 12.7013C62.872 13.2256 63.502 13.8997 63.9627 14.7237C64.4232 15.5394 64.6535 16.5173 64.6535 17.6575V30.5912H59.387V27.9321H59.2305C58.909 28.5313 58.4788 29.0599 57.94 29.5176C57.4011 29.967 56.7537 30.3208 55.9976 30.5787C55.2415 30.8284 54.3681 30.9533 53.3773 30.9533ZM54.9677 27.2829C55.7847 27.2829 56.506 27.1289 57.1318 26.821C57.7575 26.5047 58.2485 26.0803 58.6048 25.5476C58.9611 25.0149 59.1393 24.4115 59.1393 23.7374V21.7024C58.9655 21.8106 58.7265 21.9105 58.4223 22.0021C58.1268 22.0852 57.7922 22.1643 57.4185 22.2392C57.0448 22.3058 56.6711 22.3682 56.2974 22.4265C55.9237 22.4765 55.5848 22.5222 55.2806 22.5639C54.6288 22.6554 54.0596 22.801 53.5729 23.0008C53.0862 23.2005 52.7082 23.471 52.4387 23.8123C52.1694 24.1452 52.0346 24.5613 52.0346 25.0607C52.0346 25.7848 52.3084 26.3382 52.8559 26.7211C53.4121 27.0956 54.1161 27.2829 54.9677 27.2829ZM77.9828 38.1816C76.184 38.1816 74.6413 37.9445 73.3551 37.4701C72.0776 37.004 71.0608 36.3673 70.3047 35.5599C69.5486 34.7526 69.0576 33.8455 68.8316 32.8384L73.9678 32.1768C74.1242 32.5596 74.372 32.9175 74.7109 33.2504C75.0498 33.5833 75.4976 33.8496 76.0533 34.0494C76.6187 34.2574 77.3051 34.3615 78.1135 34.3615C79.3212 34.3615 80.316 34.0785 81.0987 33.5125C81.8894 32.9549 82.2851 32.0186 82.2851 30.7036V27.1955H82.0502C81.8072 27.7282 81.4416 28.2317 80.9548 28.7061C80.4688 29.1805 79.8425 29.5675 79.0782 29.8672C78.3132 30.1668 77.4006 30.3166 76.3404 30.3166C74.8369 30.3166 73.4681 29.9837 72.234 29.3178C71.0086 28.6437 70.0309 27.6158 69.3009 26.2343C68.5796 24.8443 68.2189 23.0882 68.2189 20.9659C68.2189 18.7936 68.5883 16.9792 69.327 15.5227C70.0657 14.0662 71.0478 12.9759 72.2731 12.2518C73.5072 11.5278 74.8586 11.1657 76.3272 11.1657C77.4483 11.1657 78.3873 11.3488 79.1428 11.715C79.899 12.0729 80.5077 12.5223 80.968 13.0633C81.4372 13.596 81.7984 14.1203 82.0502 14.6363H82.2587V11.4154H87.7732V30.7785C87.7732 32.4098 87.3562 33.7747 86.5214 34.8734C85.6874 35.972 84.531 36.7959 83.0538 37.3452C81.5855 37.9029 79.8946 38.1816 77.9828 38.1816ZM78.1003 26.3216C78.9952 26.3216 79.7515 26.1094 80.3682 25.6849C80.9944 25.2521 81.4724 24.6362 81.8028 23.8373C82.1413 23.03 82.3109 22.0645 82.3109 20.9409C82.3109 19.8173 82.1457 18.8435 81.8153 18.0196C81.4856 17.1873 81.0077 16.5422 80.3814 16.0845C79.7559 15.6267 78.9952 15.3979 78.1003 15.3979C77.1877 15.3979 76.419 15.6351 75.7927 16.1095C75.1672 16.5756 74.6935 17.2248 74.372 18.057C74.0504 18.8893 73.8896 19.8506 73.8896 20.9409C73.8896 22.0478 74.0504 23.005 74.372 23.8123C74.7022 24.6113 75.176 25.2313 75.7927 25.6724C76.419 26.1052 77.1877 26.3216 78.1003 26.3216ZM101.318 30.9658C99.2574 30.9658 97.4851 30.5663 95.9991 29.7673C94.5212 28.9599 93.3832 27.8197 92.5837 26.3466C91.7841 24.8651 91.384 23.1131 91.384 21.0907C91.384 19.1182 91.7841 17.387 92.5837 15.8972C93.3832 14.4074 94.508 13.2464 95.9595 12.4141C97.4198 11.5818 99.1319 11.1657 101.096 11.1657C102.417 11.1657 103.646 11.3696 104.785 11.7774C105.932 12.177 106.932 12.7803 107.784 13.5876C108.644 14.3949 109.313 15.4104 109.791 16.6338C110.269 17.849 110.508 19.2722 110.508 20.9035V22.3641H93.6005V19.0683H105.281C105.281 18.3026 105.107 17.6243 104.759 17.0333C104.411 16.4424 103.929 15.9805 103.312 15.6475C102.704 15.3063 101.995 15.1357 101.187 15.1357C100.344 15.1357 99.5966 15.323 98.9447 15.6975C98.3015 16.0637 97.7979 16.5589 97.433 17.1831C97.0681 17.799 96.8809 18.4857 96.8721 19.243V22.3765C96.8721 23.3254 97.0549 24.1452 97.4198 24.836C97.7935 25.5268 98.3192 26.0595 98.9968 26.4339C99.6752 26.8085 100.479 26.9958 101.409 26.9958C102.026 26.9958 102.591 26.9125 103.103 26.7461C103.616 26.5796 104.055 26.3299 104.42 25.997C104.785 25.6641 105.063 25.2563 105.254 24.7735L110.391 25.0982C110.13 26.28 109.596 27.3121 108.787 28.1943C107.988 29.0682 106.953 29.7506 105.685 30.2417C104.425 30.7244 102.969 30.9658 101.318 30.9658Z" fill="url(#paint0_linear_5992_163)"/>
</g>
<path d="M136.619 6.20703L133.273 10.2541L136.187 13.7615C138.202 11.3512 142.198 6.41208 142.285 6.36891C142.371 6.32574 138.544 6.243 136.619 6.20703Z" fill="#AD1D34"/>
<path d="M124.395 5.71875H118.214H117.189L126.88 17.4352L117.189 29.4613H124.395L134.133 17.4352L124.395 5.71875Z" fill="#D6CE2B"/>
<path d="M136.184 20.9336L133.055 24.7108L136.562 28.6499H142.714L136.184 20.9336Z" fill="#153347"/>
<path d="M136.651 28.1839L137.832 30.7023L143.873 30.7094L144.853 28.1821L136.651 28.1839Z" fill="url(#paint1_linear_5992_163)"/>
<path d="M135.606 6.56055L135.694 4.05903L144.075 4.05913L144.075 6.84429L135.606 6.56055Z" fill="url(#paint2_linear_5992_163)"/>
<path d="M133.499 24.1758L131.898 26.1249L135.672 30.7058H138.888L133.499 24.1758Z" fill="url(#paint3_linear_5992_163)"/>
<path d="M124.831 4.05859H113.521L124.609 17.3952L113.521 30.7367H124.796L135.901 17.3803L124.831 4.05859ZM118.844 6.55688H123.659L132.67 17.3976L123.659 28.2384H118.846L127.857 17.3976L118.846 6.55688H118.844Z" fill="url(#paint4_linear_5992_163)"/>
<path d="M133.517 10.5558L132.708 9.58334L131.898 8.61085L135.683 4.05859H138.921L133.517 10.5558Z" fill="url(#paint5_linear_5992_163)"/>
<path d="M135.938 13.4545L137.538 15.3795L146.93 4.05859H143.732L135.938 13.4545Z" fill="url(#paint6_linear_5992_163)"/>
<path d="M143.755 30.7069H146.997L142.262 25.0136L137.526 19.3203L135.906 21.2715L143.755 30.7069Z" fill="url(#paint7_linear_5992_163)"/>
<path d="M113.521 34.4621C113.521 33.6201 113.803 32.9074 114.365 32.3242C114.927 31.7409 115.604 31.4492 116.397 31.4492C117.194 31.4492 117.872 31.7397 118.429 32.3207C118.987 32.9017 119.266 33.6155 119.266 34.4621C119.266 35.3136 118.992 36.0299 118.443 36.6108C117.895 37.1918 117.213 37.4823 116.397 37.4823C115.563 37.4823 114.875 37.1942 114.334 36.6179C113.792 36.0416 113.521 35.3229 113.521 34.4621ZM114.925 34.4621C114.925 34.768 114.971 35.0467 115.063 35.2983C115.155 35.55 115.317 35.7628 115.547 35.9368C115.777 36.1109 116.061 36.1979 116.397 36.1979C116.881 36.1979 117.246 36.0286 117.493 35.69C117.739 35.3513 117.863 34.9421 117.863 34.4621C117.863 33.9871 117.737 33.579 117.486 33.238C117.235 32.8969 116.872 32.7263 116.397 32.7263C115.927 32.7263 115.564 32.8969 115.308 33.238C115.053 33.579 114.925 33.9871 114.925 34.4621Z" fill="url(#paint8_linear_5992_163)"/>
<path d="M119.797 37.5108V33.8911H121.02V34.2721H121.034C121.352 33.9475 121.691 33.7852 122.05 33.7852C122.226 33.7852 122.4 33.8087 122.572 33.8559C122.745 33.9029 122.911 33.9758 123.07 34.0746C123.229 34.1734 123.358 34.3132 123.457 34.4944C123.556 34.6754 123.606 34.8859 123.606 35.1258V37.5108H122.382V35.4645C122.382 35.2764 122.323 35.1118 122.206 34.9707C122.088 34.8296 121.935 34.759 121.746 34.759C121.562 34.759 121.395 34.832 121.245 34.9778C121.095 35.1235 121.02 35.2857 121.02 35.4645V37.5108H119.797Z" fill="url(#paint9_linear_5992_163)"/>
<path d="M127.922 35.741H125.35C125.35 35.995 125.431 36.1832 125.592 36.3055C125.753 36.4279 125.928 36.489 126.117 36.489C126.316 36.489 126.472 36.462 126.587 36.4079C126.703 36.3537 126.834 36.2466 126.982 36.0868L127.866 36.5382C127.498 37.1687 126.885 37.484 126.027 37.484C125.493 37.484 125.034 37.297 124.652 36.923C124.269 36.5489 124.078 36.0985 124.078 35.5717C124.078 35.0448 124.269 34.5932 124.652 34.2168C125.034 33.8405 125.493 33.6523 126.027 33.6523C126.59 33.6523 127.047 33.8182 127.399 34.1499C127.752 34.4815 127.928 34.9554 127.928 35.5717C127.928 35.6564 127.926 35.7128 127.922 35.741ZM125.385 35.0495H126.733C126.705 34.8613 126.632 34.7167 126.515 34.6156C126.397 34.5143 126.246 34.4637 126.062 34.4637C125.859 34.4637 125.698 34.5179 125.578 34.6262C125.458 34.7344 125.394 34.8755 125.385 35.0495Z" fill="url(#paint10_linear_5992_163)"/>
<path d="M128.475 31.6914H130.244C130.779 31.6914 131.205 31.8079 131.523 32.0407C131.841 32.2736 132 32.6511 132 33.1733C132 33.7566 131.763 34.1729 131.288 34.4222C132.099 34.568 132.505 35.0572 132.505 35.8898C132.505 36.3792 132.339 36.7721 132.007 37.0685C131.675 37.3647 131.219 37.5128 130.638 37.5128H128.475V31.6914ZM129.774 33.9707H129.878C130.168 33.9707 130.385 33.919 130.528 33.8156C130.671 33.712 130.742 33.5426 130.742 33.3073C130.742 32.9123 130.454 32.7147 129.878 32.7147H129.774V33.9707ZM129.774 36.4898H130.182C130.818 36.4898 131.136 36.2734 131.136 35.8406C131.136 35.5819 131.056 35.3961 130.898 35.2832C130.739 35.1702 130.5 35.1136 130.182 35.1136H129.774V36.4898Z" fill="url(#paint11_linear_5992_163)"/>
<path d="M133.045 37.5108V33.8911H134.268V34.4133H134.282C134.292 34.3944 134.307 34.3708 134.327 34.3426C134.348 34.3144 134.393 34.265 134.462 34.1945C134.531 34.1239 134.605 34.0604 134.683 34.0039C134.762 33.9475 134.863 33.897 134.987 33.8523C135.112 33.8076 135.239 33.7852 135.368 33.7852C135.501 33.7852 135.633 33.804 135.762 33.8417C135.891 33.8792 135.985 33.9168 136.045 33.9545L136.142 34.011L135.63 35.0693C135.478 34.9377 135.266 34.8718 134.994 34.8718C134.847 34.8718 134.72 34.9048 134.614 34.9707C134.508 35.0364 134.433 35.1164 134.389 35.2105C134.346 35.3046 134.315 35.3847 134.296 35.4505C134.278 35.5163 134.268 35.568 134.268 35.6057V37.5108H133.045Z" fill="url(#paint12_linear_5992_163)"/>
<path d="M136.689 36.9301C136.357 36.5607 136.191 36.1079 136.191 35.5717C136.191 35.0353 136.357 34.5814 136.689 34.2098C137.021 33.8382 137.443 33.6523 137.954 33.6523C138.424 33.6523 138.811 33.8029 139.115 34.104V33.7583H140.339V37.378H139.129V36.9686H139.115C138.811 37.3122 138.424 37.484 137.954 37.484C137.443 37.484 137.021 37.2994 136.689 36.9301ZM137.73 34.9578C137.571 35.1176 137.491 35.3223 137.491 35.5717C137.491 35.821 137.567 36.0245 137.719 36.1821C137.871 36.3396 138.072 36.4183 138.321 36.4183C138.56 36.4183 138.757 36.3384 138.912 36.1785C139.066 36.0185 139.143 35.8162 139.143 35.5717C139.143 35.3223 139.064 35.1176 138.905 34.9578C138.746 34.7978 138.551 34.7177 138.321 34.7177C138.085 34.7177 137.888 34.7978 137.73 34.9578Z" fill="url(#paint13_linear_5992_163)"/>
<path d="M141.253 31.875C141.396 31.7292 141.566 31.6562 141.765 31.6562C141.963 31.6562 142.133 31.7292 142.276 31.875C142.419 32.0209 142.491 32.1949 142.491 32.3972C142.491 32.5995 142.419 32.7735 142.276 32.9193C142.133 33.0652 141.963 33.1381 141.765 33.1381C141.566 33.1381 141.396 33.0652 141.253 32.9193C141.11 32.7735 141.039 32.5995 141.039 32.3972C141.039 32.1949 141.11 32.0209 141.253 31.875ZM141.136 33.8932V37.5129H142.359V33.8932H141.136Z" fill="url(#paint14_linear_5992_163)"/>
<path d="M143.191 37.5108V33.8911H144.415V34.2721H144.429C144.747 33.9475 145.086 33.7852 145.445 33.7852C145.62 33.7852 145.794 33.8087 145.967 33.8559C146.14 33.9029 146.306 33.9758 146.465 34.0746C146.624 34.1734 146.752 34.3132 146.851 34.4944C146.951 34.6754 147 34.8859 147 35.1258V37.5108H145.777V35.4645C145.777 35.2764 145.718 35.1118 145.6 34.9707C145.483 34.8296 145.33 34.759 145.141 34.759C144.956 34.759 144.789 34.832 144.64 34.9778C144.49 35.1235 144.415 35.2857 144.415 35.4645V37.5108H143.191Z" fill="url(#paint15_linear_5992_163)"/>
<defs>
<filter id="filter0_d_5992_163" x="0" y="5.02344" width="114.508" height="41.1602" filterUnits="userSpaceOnUse" color-interpolation-filters="sRGB">
<feFlood flood-opacity="0" result="BackgroundImageFix"/>
<feColorMatrix in="SourceAlpha" type="matrix" values="0 0 0 0 0 0 0 0 0 0 0 0 0 0 0 0 0 0 127 0" result="hardAlpha"/>
<feOffset dy="4"/>
<feGaussianBlur stdDeviation="2"/>
<feComposite in2="hardAlpha" operator="out"/>
<feColorMatrix type="matrix" values="0 0 0 0 0 0 0 0 0 0 0 0 0 0 0 0 0 0 0.25 0"/>
<feBlend mode="normal" in2="BackgroundImageFix" result="effect1_dropShadow_5992_163"/>
<feBlend mode="normal" in="SourceGraphic" in2="effect1_dropShadow_5992_163" result="shape"/>
</filter>
<linearGradient id="paint0_linear_5992_163" x1="57.2541" y1="5.02344" x2="57.2541" y2="38.1816" gradientUnits="userSpaceOnUse">
<stop stop-color="white"/>
<stop offset="1" stop-color="#A1A4B1"/>
</linearGradient>
<linearGradient id="paint1_linear_5992_163" x1="137.929" y1="26.632" x2="143.473" y2="31.1958" gradientUnits="userSpaceOnUse">
<stop stop-color="white"/>
<stop offset="1" stop-color="#A1A4B1"/>
</linearGradient>
<linearGradient id="paint2_linear_5992_163" x1="143.175" y1="2.89886" x2="136.677" y2="7.94063" gradientUnits="userSpaceOnUse">
<stop stop-color="white"/>
<stop offset="1" stop-color="#A1A4B1"/>
</linearGradient>
<linearGradient id="paint3_linear_5992_163" x1="135.393" y1="24.1758" x2="135.393" y2="30.7058" gradientUnits="userSpaceOnUse">
<stop stop-color="white"/>
<stop offset="1" stop-color="#A1A4B1"/>
</linearGradient>
<linearGradient id="paint4_linear_5992_163" x1="124.711" y1="4.05859" x2="124.711" y2="30.7367" gradientUnits="userSpaceOnUse">
<stop stop-color="white"/>
<stop offset="1" stop-color="#A1A4B1"/>
</linearGradient>
<linearGradient id="paint5_linear_5992_163" x1="135.41" y1="4.05859" x2="135.41" y2="10.5558" gradientUnits="userSpaceOnUse">
<stop stop-color="white"/>
<stop offset="1" stop-color="#A1A4B1"/>
</linearGradient>
<linearGradient id="paint6_linear_5992_163" x1="141.434" y1="4.05859" x2="141.434" y2="15.3795" gradientUnits="userSpaceOnUse">
<stop stop-color="white"/>
<stop offset="1" stop-color="#A1A4B1"/>
</linearGradient>
<linearGradient id="paint7_linear_5992_163" x1="141.452" y1="19.3203" x2="141.452" y2="30.7069" gradientUnits="userSpaceOnUse">
<stop stop-color="white"/>
<stop offset="1" stop-color="#A1A4B1"/>
</linearGradient>
<linearGradient id="paint8_linear_5992_163" x1="116.394" y1="31.4492" x2="116.394" y2="37.4823" gradientUnits="userSpaceOnUse">
<stop stop-color="white"/>
<stop offset="1" stop-color="#A1A4B1"/>
</linearGradient>
<linearGradient id="paint9_linear_5992_163" x1="121.701" y1="33.7852" x2="121.701" y2="37.5108" gradientUnits="userSpaceOnUse">
<stop stop-color="white"/>
<stop offset="1" stop-color="#A1A4B1"/>
</linearGradient>
<linearGradient id="paint10_linear_5992_163" x1="126.003" y1="33.6523" x2="126.003" y2="37.484" gradientUnits="userSpaceOnUse">
<stop stop-color="white"/>
<stop offset="1" stop-color="#A1A4B1"/>
</linearGradient>
<linearGradient id="paint11_linear_5992_163" x1="130.49" y1="31.6914" x2="130.49" y2="37.5128" gradientUnits="userSpaceOnUse">
<stop stop-color="white"/>
<stop offset="1" stop-color="#A1A4B1"/>
</linearGradient>
<linearGradient id="paint12_linear_5992_163" x1="134.593" y1="33.7852" x2="134.593" y2="37.5108" gradientUnits="userSpaceOnUse">
<stop stop-color="white"/>
<stop offset="1" stop-color="#A1A4B1"/>
</linearGradient>
<linearGradient id="paint13_linear_5992_163" x1="138.265" y1="33.6523" x2="138.265" y2="37.484" gradientUnits="userSpaceOnUse">
<stop stop-color="#22D3EE"/>
<stop offset="1" stop-color="#60A5FA"/>
</linearGradient>
<linearGradient id="paint14_linear_5992_163" x1="141.765" y1="31.6562" x2="141.765" y2="37.5129" gradientUnits="userSpaceOnUse">
<stop stop-color="#22D3EE"/>
<stop offset="1" stop-color="#60A5FA"/>
</linearGradient>
<linearGradient id="paint15_linear_5992_163" x1="145.096" y1="33.7852" x2="145.096" y2="37.5108" gradientUnits="userSpaceOnUse">
<stop stop-color="white"/>
<stop offset="1" stop-color="#A1A4B1"/>
</linearGradient>
</defs>
</svg>
