<svg width="30" height="30" viewBox="0 0 30 30" fill="none" xmlns="http://www.w3.org/2000/svg">
<path d="M3.74878 3.75L26.2488 26.25M12.3041 12.3921C11.6508 13.067 11.2488 13.9865 11.2488 15C11.2488 17.0711 12.9278 18.75 14.9988 18.75C16.0269 18.75 16.9584 18.3363 17.6358 17.6663M8.12378 8.30894C5.74965 9.87543 3.94131 12.2299 3.07129 15C4.6641 20.0714 9.40199 23.75 14.999 23.75C17.4851 23.75 19.8018 23.0242 21.7485 21.773M13.7488 6.31174C14.16 6.27091 14.5771 6.25 14.999 6.25C20.5961 6.25 25.334 9.92864 26.9268 15C26.5759 16.1175 26.0721 17.1672 25.4403 18.125" stroke="#6B7280" stroke-width="1.5" stroke-linecap="round" stroke-linejoin="round"/>
</svg>
