<svg width="27" height="24" viewBox="0 0 27 24" fill="none" xmlns="http://www.w3.org/2000/svg">
<mask id="mask0_3001_218" style="mask-type:luminance" maskUnits="userSpaceOnUse" x="0" y="0" width="27" height="24">
<path d="M0 0.5625H26.7674V23.5825H0V0.5625Z" fill="white"/>
</mask>
<g mask="url(#mask0_3001_218)">
<path fill-rule="evenodd" clip-rule="evenodd" d="M6.12427 12.2137C6.12357 12.1939 6.12279 12.174 6.12201 12.154C5.91123 6.76057 10.5221 2.75138 15.2597 2.75138C19.9973 2.75138 24.5183 6.48514 24.5183 12.154C24.5183 14.777 23.3002 17.2414 21.6943 18.8195C19.8296 20.6521 17.4167 21.3912 15.3828 21.3912C11.5975 21.3912 8.97493 18.7157 8.97493 18.7157L7.28995 20.2999C7.28995 20.2999 8.9921 21.8119 10.3917 22.4595C11.7914 23.107 12.2011 23.4991 15.2597 23.5673C17.8866 23.626 20.3386 22.4523 21.9329 21.3912C26.4213 18.4041 26.7697 14.1383 26.7697 12.1836C26.7697 10.2289 26.3801 6.39209 22.6428 3.22129C20.8951 1.73845 18.6218 0.5625 15.0443 0.5625C11.7079 0.5625 9.17011 2.09867 7.51492 3.54125C3.60036 6.95305 3.7599 12.1836 3.7599 12.1836C3.7599 12.1836 3.76496 12.1941 3.77454 12.2137H0L5.08494 17.4621L10.3341 12.2137H6.12427Z" fill="white"/>
</g>
<path fill-rule="evenodd" clip-rule="evenodd" d="M14 6V12.4943L18.2732 16L19 14.6338L15.4071 11.6937V6H14Z" fill="white"/>
</svg>
