<svg width="12" height="13" viewBox="0 0 12 13" fill="none" xmlns="http://www.w3.org/2000/svg">
<g clip-path="url(#clip0_198_254)">
<mask id="mask0_198_254" style="mask-type:luminance" maskUnits="userSpaceOnUse" x="0" y="5" width="12" height="8">
<path d="M0.193756 5.69995H11.8063V12.1125H0.193756V5.69995Z" fill="white"/>
</mask>
<g mask="url(#mask0_198_254)">
<path d="M11.5172 12.1093C11.5156 12.1093 11.5156 12.1093 11.5156 12.1093H0.482819C0.323444 12.1093 0.193756 11.9796 0.193756 11.8187C0.193756 8.61714 2.79844 6.01245 6.00001 6.01245C9.19532 6.01245 11.7953 8.6062 11.8063 11.8C11.8063 11.8062 11.8063 11.8125 11.8063 11.8187C11.8063 11.9796 11.6766 12.1093 11.5172 12.1093ZM0.781256 11.5281H11.2172C11.0656 8.7812 8.78438 6.59214 6.00001 6.59214C3.21563 6.59214 0.932819 8.7812 0.781256 11.5281Z" fill="#6B7280"/>
</g>
<mask id="mask1_198_254" style="mask-type:luminance" maskUnits="userSpaceOnUse" x="2" y="0" width="8" height="7">
<path d="M2.8 0.818726H9.2V6.89998H2.8V0.818726Z" fill="white"/>
</mask>
<g mask="url(#mask1_198_254)">
<path d="M6 6.59219C4.40781 6.59219 3.11406 5.29844 3.11406 3.70625C3.11406 2.11562 4.40781 0.820312 6 0.820312C7.59062 0.820312 8.88593 2.11562 8.88593 3.70625C8.88593 5.29844 7.59062 6.59219 6 6.59219ZM6 1.40156C4.72812 1.40156 3.69375 2.43594 3.69375 3.70625C3.69375 4.97812 4.72812 6.0125 6 6.0125C7.27031 6.0125 8.30468 4.97812 8.30468 3.70625C8.30468 2.43594 7.27031 1.40156 6 1.40156Z" fill="#6B7280"/>
</g>
</g>
<defs>
<clipPath id="clip0_198_254">
<rect width="12" height="12" fill="white" transform="translate(0 0.5)"/>
</clipPath>
</defs>
</svg>
