<svg width="28" height="22" viewBox="0 0 28 22" fill="none" xmlns="http://www.w3.org/2000/svg">
<path d="M18.9216 1.75623L16.1806 5.06131L18.5679 7.92572C20.2184 5.95739 23.4928 1.92368 23.5636 1.88843C23.6343 1.85317 20.4984 1.7856 18.9216 1.75623Z" fill="#AD1D34"/>
<path d="M8.90985 1.35889H3.84571H3.00594L10.9457 10.9274L3.00594 20.7487H8.90985L16.8877 10.9274L8.90985 1.35889Z" fill="#D6CE2B"/>
<path d="M18.568 13.7848L16.0038 16.8695L18.8774 20.0865H23.9173L18.568 13.7848Z" fill="#153347"/>
<path d="M18.9534 19.7052L19.9211 21.7619L24.8704 21.7677L25.6728 19.7037L18.9534 19.7052Z" fill="white"/>
<path d="M18.0923 2.0433L18.1646 0.000366211L25.031 0.000454634L25.0311 2.27501L18.0923 2.0433Z" fill="white"/>
<path d="M16.3667 16.4265L15.0554 18.0183L18.1472 21.7594H20.7818L16.3667 16.4265Z" fill="white"/>
<path d="M9.26564 0.000366211H-0.000228882L9.08341 10.892L-0.000228882 21.7875H9.23734L18.3351 10.8799L9.26564 0.000366211ZM4.36032 2.04064H8.30567L15.688 10.894L8.30567 19.7473H4.36235L11.7447 10.894L4.36235 2.04064H4.36032Z" fill="white"/>
<path d="M16.3818 5.30647L15.7185 4.51227L15.0554 3.71806L18.1562 0.000366211H20.8087L16.3818 5.30647Z" fill="white"/>
<path d="M18.3625 7.67377L19.6735 9.24584L27.3688 0.000366211H24.7486L18.3625 7.67377Z" fill="white"/>
<path d="M24.7699 21.7691H27.4266L23.5468 17.1196L19.667 12.47L18.3396 14.0636L24.7699 21.7691Z" fill="white"/>
</svg>
