<svg width="22" height="22" viewBox="0 0 22 22" fill="none" xmlns="http://www.w3.org/2000/svg">
<path d="M9.73001 4.43005C8.09921 4.43005 7.28382 4.43005 6.64062 4.69647C5.78302 5.05171 5.10166 5.73306 4.74643 6.59067C4.48001 7.23386 4.48001 8.04926 4.48001 9.68005V12.8301C4.48001 14.7902 4.48001 15.7703 4.86148 16.5191C5.19705 17.1776 5.73248 17.713 6.39105 18.0486C7.13973 18.4301 8.11983 18.4301 10.08 18.4301H13.23C14.8608 18.4301 15.6762 18.4301 16.3194 18.1636C17.177 17.8084 17.8583 17.127 18.2136 16.2694C18.48 15.6262 18.48 14.8109 18.48 13.1801" stroke="#9CA3AF" stroke-width="1.75" stroke-linecap="square"/>
<path d="M11.8644 13.6706L18.0425 7.49251C18.7674 6.76763 18.7674 5.59239 18.0425 4.86751C17.3177 4.14263 16.1424 4.14263 15.4175 4.86751L9.23943 11.0456C8.9933 11.2918 8.85501 11.6256 8.85501 11.9736V14.055H10.9364C11.2844 14.055 11.6183 13.9168 11.8644 13.6706Z" stroke="#9CA3AF" stroke-width="1.75" stroke-linecap="square"/>
</svg>
