<svg width="58" height="28" viewBox="0 0 58 28" fill="none" xmlns="http://www.w3.org/2000/svg">
<path d="M10 4.75C10.1137 4.75 10.3148 4.79425 10.708 5.30762C11.1017 5.82173 11.546 6.61551 12.1914 7.77344L12.5195 8.36133C12.8468 8.94855 13.1059 9.44495 13.541 9.77539C13.9809 10.1093 14.5239 10.2159 15.1582 10.3594L15.7949 10.5039C17.0502 10.7879 17.9043 10.9834 18.4893 11.2139C18.9881 11.4105 19.1433 11.5757 19.2051 11.7129L19.2266 11.7705C19.275 11.9263 19.2768 12.165 18.9355 12.707C18.6758 13.1197 18.2814 13.6085 17.7402 14.249L17.1504 14.9424L16.7158 15.4492V15.4502C16.2801 15.9598 15.9117 16.3687 15.748 16.8945C15.5854 17.4173 15.6528 17.9688 15.7188 18.6494V18.6504L15.7842 19.3271C15.9133 20.6591 16.0002 21.5766 15.9707 22.2373C15.9413 22.8965 15.8021 23.0791 15.6914 23.1631C15.5929 23.2379 15.4105 23.3203 14.8174 23.1504C14.2146 22.9777 13.4134 22.6114 12.2383 22.0703L11.6426 21.7959H11.6416C11.0504 21.5239 10.5496 21.2744 10 21.2744C9.45029 21.2744 8.94875 21.5238 8.35742 21.7959L7.76172 22.0703C6.5866 22.6114 5.78539 22.9777 5.18262 23.1504C4.66386 23.299 4.45959 23.254 4.35059 23.1904L4.30859 23.1631C4.19794 23.0791 4.05871 22.8966 4.0293 22.2373C3.99987 21.5766 4.08675 20.6591 4.21582 19.3271L4.28125 18.6504C4.34721 17.9697 4.41441 17.4182 4.25195 16.8955C4.0884 16.3694 3.72004 15.9599 3.28418 15.4502V15.4492L2.85059 14.9424C1.99605 13.943 1.41081 13.2572 1.06445 12.707C0.765755 12.2325 0.729686 11.9904 0.757812 11.833L0.773438 11.7705C0.819368 11.6228 0.940126 11.4388 1.51074 11.2139C2.09566 10.9833 2.9498 10.7879 4.20508 10.5039L4.8418 10.3594C5.47599 10.2159 6.01817 10.1091 6.45801 9.77539C6.78455 9.52749 7.01262 9.18613 7.24414 8.7832L7.48047 8.36133L7.80859 7.77344C8.45404 6.61553 8.89828 5.82173 9.29199 5.30762C9.68521 4.79424 9.8863 4.75 10 4.75Z" stroke="#F8FAFC" stroke-width="1.5"/>
<g clip-path="url(#clip0_301_194)">
<g clip-path="url(#clip1_301_194)">
<g clip-path="url(#clip2_301_194)">
<path d="M32.5322 11.5947V21.7887H30.3105V9.95101H32.3701L32.5322 11.5947ZM37.8161 14.1313V14.2973C37.8161 14.9189 37.7441 15.4958 37.6002 16.028C37.4612 16.5599 37.2555 17.0236 36.983 17.4187C36.7105 17.8085 36.3711 18.114 35.9648 18.3352C35.5637 18.5514 35.1008 18.6593 34.5763 18.6593C34.0672 18.6593 33.6249 18.554 33.2495 18.3432C32.8741 18.1325 32.5579 17.8375 32.3007 17.4583C32.0488 17.0736 31.8456 16.6284 31.6913 16.1227C31.537 15.617 31.4188 15.0743 31.3365 14.4948V14.0602C31.4188 13.4385 31.537 12.8696 31.6913 12.3533C31.8456 11.8318 32.0488 11.3813 32.3007 11.002C32.5579 10.6174 32.8715 10.3198 33.2418 10.109C33.6173 9.89832 34.0569 9.79297 34.5609 9.79297C35.0905 9.79297 35.556 9.89568 35.9571 10.1011C36.3633 10.3066 36.7027 10.6016 36.9753 10.9862C37.253 11.3708 37.4612 11.8291 37.6002 12.3612C37.7441 12.8933 37.8161 13.4833 37.8161 14.1313ZM35.5868 14.2973V14.1313C35.5868 13.7678 35.556 13.4333 35.4943 13.1277C35.4376 12.8169 35.3451 12.5456 35.2166 12.3138C35.0931 12.082 34.9286 11.9029 34.7229 11.7764C34.5223 11.6447 34.2781 11.5789 33.9901 11.5789C33.6867 11.5789 33.4269 11.6289 33.2109 11.729C33.0001 11.8291 32.8278 11.974 32.6941 12.1636C32.5604 12.3533 32.4602 12.5798 32.3933 12.8432C32.3265 13.1066 32.2853 13.4043 32.2698 13.7362V14.8346C32.2955 15.2245 32.3675 15.5748 32.4859 15.8856C32.6042 16.1911 32.7868 16.4335 33.0335 16.6127C33.2804 16.7918 33.6044 16.8813 34.0054 16.8813C34.2986 16.8813 34.5454 16.8155 34.746 16.6837C34.9466 16.5467 35.1086 16.3598 35.2319 16.1227C35.3606 15.8856 35.4505 15.6116 35.502 15.3008C35.5585 14.99 35.5868 14.6555 35.5868 14.2973ZM41.4185 11.8159V18.5013H39.1969V9.95101H41.2874L41.4185 11.8159ZM43.9332 9.89568L43.8946 12.0056C43.7866 11.9898 43.6555 11.9766 43.5012 11.9661C43.3521 11.9503 43.2157 11.9424 43.0924 11.9424C42.7787 11.9424 42.5061 11.9845 42.2748 12.0688C42.0484 12.1478 41.8581 12.2664 41.7039 12.4244C41.5547 12.5825 41.4417 12.7748 41.3645 13.0013C41.2924 13.2278 41.2513 13.486 41.241 13.7757L40.7937 13.6335C40.7937 13.0803 40.8477 12.5719 40.9556 12.1083C41.0636 11.6395 41.2204 11.2312 41.4262 10.8835C41.6371 10.5358 41.8941 10.2671 42.1976 10.0774C42.501 9.88778 42.8481 9.79297 43.2388 9.79297C43.3623 9.79297 43.4883 9.8035 43.6169 9.82457C43.7454 9.84037 43.8509 9.86408 43.9332 9.89568ZM44.3959 14.3131V14.1471C44.3959 13.5202 44.4834 12.9433 44.6583 12.4165C44.8331 11.8844 45.0877 11.4235 45.4219 11.0336C45.7561 10.6438 46.1676 10.3409 46.6562 10.1249C47.1446 9.90359 47.7052 9.79297 48.3377 9.79297C48.9703 9.79297 49.5335 9.90359 50.0271 10.1249C50.5208 10.3409 50.9347 10.6438 51.2691 11.0336C51.6083 11.4235 51.8655 11.8844 52.0405 12.4165C52.2152 12.9433 52.3027 13.5202 52.3027 14.1471V14.3131C52.3027 14.9347 52.2152 15.5115 52.0405 16.0437C51.8655 16.5706 51.6083 17.0314 51.2691 17.4266C50.9347 17.8164 50.5234 18.1193 50.0348 18.3352C49.5463 18.5514 48.9857 18.6593 48.3532 18.6593C47.7206 18.6593 47.1575 18.5514 46.6639 18.3352C46.1754 18.1193 45.7613 17.8164 45.4219 17.4266C45.0877 17.0314 44.8331 16.5706 44.6583 16.0437C44.4834 15.5115 44.3959 14.9347 44.3959 14.3131ZM46.6176 14.1471V14.3131C46.6176 14.6713 46.6484 15.0058 46.7101 15.3166C46.7719 15.6275 46.8695 15.9014 47.0033 16.1385C47.142 16.3703 47.3221 16.5521 47.5432 16.6837C47.7644 16.8155 48.0343 16.8813 48.3532 16.8813C48.6617 16.8813 48.9266 16.8155 49.1477 16.6837C49.3688 16.5521 49.5463 16.3703 49.68 16.1385C49.8136 15.9014 49.9113 15.6275 49.973 15.3166C50.04 15.0058 50.0734 14.6713 50.0734 14.3131V14.1471C50.0734 13.7994 50.04 13.4728 49.973 13.1672C49.9113 12.8564 49.8112 12.5825 49.6722 12.3454C49.5385 12.1031 49.3611 11.9134 49.1399 11.7764C48.9189 11.6395 48.6515 11.571 48.3377 11.571C48.024 11.571 47.7566 11.6395 47.5356 11.7764C47.3196 11.9134 47.142 12.1031 47.0033 12.3454C46.8695 12.5825 46.7719 12.8564 46.7101 13.1672C46.6484 13.4728 46.6176 13.7994 46.6176 14.1471Z" fill="url(#paint0_linear_301_194)"/>
<path d="M49.1697 21.7896H34.7696H29.3105L49.1697 20.2781C50.3258 20.2781 51.3978 20.0446 52.3556 19.5836C53.373 19.0989 54.2098 18.3563 54.7785 17.4344L54.7813 17.43C55.3457 16.5299 55.6319 15.4741 55.6319 14.2921C55.6319 13.1101 55.3461 12.0553 54.782 11.1554L54.7793 11.1513C54.2098 10.2288 53.373 9.48592 52.3594 9.00289C51.3978 8.54022 50.3254 8.30639 49.1693 8.30639L29.3105 10.0081L36.7746 8.93701L49.1693 6.79492C50.4586 6.79491 51.9373 7.08831 53.1393 7.66663C54.4354 8.28413 55.5067 9.23358 56.234 10.4109C56.9417 11.5409 57.3005 12.8464 57.3005 14.2921C57.3005 15.7377 56.9414 17.0445 56.2333 18.1746C55.5067 19.3509 54.4354 20.3 53.1352 20.9194C51.937 21.4962 50.6018 21.7896 49.1697 21.7896Z" fill="url(#paint1_linear_301_194)"/>
</g>
</g>
</g>
<defs>
<linearGradient id="paint0_linear_301_194" x1="41.3066" y1="9.79296" x2="41.3066" y2="21.7887" gradientUnits="userSpaceOnUse">
<stop stop-color="#22D3EE"/>
<stop offset="1" stop-color="#60A5FA"/>
</linearGradient>
<linearGradient id="paint1_linear_301_194" x1="34.2865" y1="6.79491" x2="34.2865" y2="21.7896" gradientUnits="userSpaceOnUse">
<stop stop-color="#22D3EE"/>
<stop offset="1" stop-color="white"/>
</linearGradient>
<clipPath id="clip0_301_194">
<rect width="27.99" height="27.99" fill="white" transform="translate(29.3105)"/>
</clipPath>
<clipPath id="clip1_301_194">
<rect width="27.99" height="27.99" fill="white" transform="translate(29.3105)"/>
</clipPath>
<clipPath id="clip2_301_194">
<rect width="27.99" height="15.9943" fill="white" transform="translate(29.3105 5.99805)"/>
</clipPath>
</defs>
</svg>
