<svg width="84" height="28" viewBox="0 0 84 28" fill="none" xmlns="http://www.w3.org/2000/svg">
<path d="M30.2411 10.1206V8.79816H38.121V10.1206H34.9442V18.98H33.413V10.1206H30.2411ZM38.9501 18.98V11.3436H40.3868V12.5567H40.4664C40.6056 12.1457 40.8509 11.8225 41.2022 11.5872C41.5568 11.3486 41.9579 11.2293 42.4053 11.2293C42.4981 11.2293 42.6075 11.2326 42.7334 11.2392C42.8627 11.2458 42.9638 11.2541 43.0367 11.2641V12.6859C42.977 12.6694 42.871 12.6511 42.7185 12.6313C42.5661 12.6081 42.4136 12.5965 42.2611 12.5965C41.9098 12.5965 41.5966 12.671 41.3215 12.8202C41.0497 12.966 40.8343 13.1698 40.6752 13.4317C40.5161 13.6902 40.4366 13.9852 40.4366 14.3166V18.98H38.9501ZM45.4952 21.8436C45.2731 21.8436 45.0709 21.8254 44.8886 21.7889C44.7063 21.7558 44.5704 21.7193 44.481 21.6796L44.8389 20.4615C45.1107 20.5344 45.3526 20.5659 45.5648 20.556C45.7769 20.546 45.9641 20.4665 46.1266 20.3173C46.2923 20.1682 46.4381 19.9246 46.5641 19.5865L46.748 19.0794L43.954 11.3436H45.5449L47.4788 17.2698H47.5584L49.4923 11.3436H51.0882L47.9412 19.9992C47.7953 20.3969 47.6097 20.7333 47.3844 21.0084C47.159 21.2868 46.8905 21.4956 46.579 21.6348C46.2674 21.774 45.9061 21.8436 45.4952 21.8436Z" fill="white"/>
<g clip-path="url(#clip0_2078_810)">
<g clip-path="url(#clip1_2078_810)">
<g clip-path="url(#clip2_2078_810)">
<path d="M58.5313 11.5949V21.7889H56.3096V9.95126H58.3692L58.5313 11.5949ZM63.8152 14.1316V14.2975C63.8152 14.9192 63.7432 15.4961 63.5992 16.0282C63.4603 16.5601 63.2546 17.0238 62.9821 17.4189C62.7096 17.8088 62.3702 18.1143 61.9639 18.3355C61.5628 18.5516 61.0999 18.6596 60.5754 18.6596C60.0663 18.6596 59.624 18.5542 59.2486 18.3435C58.8732 18.1328 58.557 17.8378 58.2998 17.4585C58.0479 17.0738 57.8447 16.6287 57.6904 16.123C57.5361 15.6172 57.4179 15.0746 57.3356 14.4951V14.0604C57.4179 13.4388 57.5361 12.8698 57.6904 12.3535C57.8447 11.832 58.0479 11.3816 58.2998 11.0023C58.557 10.6177 58.8706 10.32 59.2409 10.1093C59.6164 9.89857 60.056 9.79321 60.5599 9.79321C61.0896 9.79321 61.5551 9.89593 61.9561 10.1014C62.3624 10.3068 62.7018 10.6019 62.9744 10.9864C63.2521 11.371 63.4603 11.8294 63.5992 12.3614C63.7432 12.8935 63.8152 13.4836 63.8152 14.1316ZM61.5859 14.2975V14.1316C61.5859 13.768 61.5551 13.4335 61.4934 13.128C61.4367 12.8171 61.3442 12.5458 61.2157 12.314C61.0922 12.0822 60.9277 11.9031 60.722 11.7767C60.5214 11.645 60.2772 11.5791 59.9892 11.5791C59.6858 11.5791 59.426 11.6292 59.21 11.7293C58.9992 11.8294 58.8269 11.9742 58.6932 12.1639C58.5595 12.3535 58.4593 12.5801 58.3924 12.8435C58.3256 13.1069 58.2844 13.4045 58.2689 13.7364V14.8349C58.2946 15.2247 58.3666 15.575 58.485 15.8859C58.6033 16.1913 58.7858 16.4338 59.0326 16.6129C59.2795 16.792 59.6035 16.8815 60.0045 16.8815C60.2977 16.8815 60.5445 16.8157 60.7451 16.684C60.9456 16.5469 61.1077 16.3601 61.231 16.123C61.3597 15.8859 61.4496 15.6119 61.501 15.301C61.5576 14.9903 61.5859 14.6557 61.5859 14.2975ZM67.4176 11.8162V18.5015H65.1959V9.95126H67.2865L67.4176 11.8162ZM69.9323 9.89593L69.8937 12.0058C69.7857 11.99 69.6546 11.9769 69.5003 11.9663C69.3512 11.9505 69.2148 11.9426 69.0915 11.9426C68.7778 11.9426 68.5052 11.9848 68.2739 12.0691C68.0474 12.1481 67.8572 12.2666 67.703 12.4247C67.5538 12.5827 67.4408 12.775 67.3636 13.0015C67.2915 13.2281 67.2504 13.4862 67.2401 13.776L66.7928 13.6337C66.7928 13.0806 66.8468 12.5722 66.9547 12.1086C67.0627 11.6397 67.2195 11.2314 67.4253 10.8837C67.6362 10.536 67.8932 10.2673 68.1967 10.0777C68.5001 9.88803 68.8472 9.79321 69.2379 9.79321C69.3614 9.79321 69.4874 9.80374 69.616 9.82481C69.7445 9.84062 69.85 9.86433 69.9323 9.89593ZM70.395 14.3133V14.1474C70.395 13.5204 70.4825 12.9436 70.6574 12.4168C70.8321 11.8847 71.0868 11.4237 71.421 11.0339C71.7552 10.644 72.1667 10.3411 72.6553 10.1251C73.1437 9.90383 73.7043 9.79321 74.3368 9.79321C74.9694 9.79321 75.5326 9.90383 76.0262 10.1251C76.5199 10.3411 76.9338 10.644 77.2681 11.0339C77.6074 11.4237 77.8646 11.8847 78.0396 12.4168C78.2143 12.9436 78.3018 13.5204 78.3018 14.1474V14.3133C78.3018 14.9349 78.2143 15.5118 78.0396 16.0439C77.8646 16.5708 77.6074 17.0316 77.2681 17.4268C76.9338 17.8167 76.5225 18.1196 76.0339 18.3355C75.5454 18.5516 74.9848 18.6596 74.3523 18.6596C73.7197 18.6596 73.1566 18.5516 72.663 18.3355C72.1745 18.1196 71.7604 17.8167 71.421 17.4268C71.0868 17.0316 70.8321 16.5708 70.6574 16.0439C70.4825 15.5118 70.395 14.9349 70.395 14.3133ZM72.6167 14.1474V14.3133C72.6167 14.6716 72.6475 15.0061 72.7092 15.3169C72.771 15.6277 72.8686 15.9017 73.0024 16.1388C73.1411 16.3706 73.3212 16.5523 73.5423 16.684C73.7635 16.8157 74.0334 16.8815 74.3523 16.8815C74.6608 16.8815 74.9257 16.8157 75.1468 16.684C75.3679 16.5523 75.5454 16.3706 75.6791 16.1388C75.8127 15.9017 75.9104 15.6277 75.9721 15.3169C76.0391 15.0061 76.0725 14.6716 76.0725 14.3133V14.1474C76.0725 13.7997 76.0391 13.473 75.9721 13.1675C75.9104 12.8566 75.8103 12.5827 75.6713 12.3456C75.5376 12.1033 75.3602 11.9137 75.139 11.7767C74.918 11.6397 74.6506 11.5712 74.3368 11.5712C74.0231 11.5712 73.7557 11.6397 73.5347 11.7767C73.3187 11.9137 73.1411 12.1033 73.0024 12.3456C72.8686 12.5827 72.771 12.8566 72.7092 13.1675C72.6475 13.473 72.6167 13.7997 72.6167 14.1474Z" fill="url(#paint0_linear_2078_810)"/>
<path d="M75.1691 21.7891H60.769H55.31L75.1691 20.2776C76.3253 20.2776 77.3972 20.0441 78.3551 19.5831C79.3724 19.0984 80.2092 18.3558 80.778 17.434L80.7808 17.4296C81.3452 16.5294 81.6314 15.4736 81.6314 14.2916C81.6314 13.1096 81.3456 12.0548 80.7815 11.1549L80.7788 11.1508C80.2092 10.2283 79.3724 9.48543 78.3589 9.0024C77.3972 8.53974 76.3249 8.3059 75.1687 8.3059L55.31 10.0076L62.774 8.93652L75.1687 6.79443C76.458 6.79442 77.9367 7.08782 79.1388 7.66614C80.4348 8.28365 81.5061 9.23309 82.2335 10.4104C82.9411 11.5404 83.3 12.846 83.3 14.2916C83.3 15.7372 82.9408 17.044 82.2328 18.1741C81.5061 19.3504 80.4348 20.2995 79.1347 20.9189C77.9364 21.4957 76.6013 21.7891 75.1691 21.7891Z" fill="url(#paint1_linear_2078_810)"/>
</g>
</g>
</g>
<path d="M10 4.75C10.1137 4.75 10.3148 4.79425 10.708 5.30762C11.1017 5.82173 11.546 6.61551 12.1914 7.77344L12.5195 8.36133C12.8468 8.94855 13.1059 9.44495 13.541 9.77539C13.9809 10.1093 14.5239 10.2159 15.1582 10.3594L15.7949 10.5039C17.0502 10.7879 17.9043 10.9834 18.4893 11.2139C18.9881 11.4105 19.1433 11.5757 19.2051 11.7129L19.2266 11.7705C19.275 11.9263 19.2768 12.165 18.9355 12.707C18.6758 13.1197 18.2814 13.6085 17.7402 14.249L17.1504 14.9424L16.7158 15.4492V15.4502C16.2801 15.9598 15.9117 16.3687 15.748 16.8945C15.5854 17.4173 15.6528 17.9688 15.7188 18.6494V18.6504L15.7842 19.3271C15.9133 20.6591 16.0002 21.5766 15.9707 22.2373C15.9413 22.8965 15.8021 23.0791 15.6914 23.1631C15.5929 23.2379 15.4105 23.3203 14.8174 23.1504C14.2146 22.9777 13.4134 22.6114 12.2383 22.0703L11.6426 21.7959H11.6416C11.0504 21.5239 10.5496 21.2744 10 21.2744C9.45029 21.2744 8.94875 21.5238 8.35742 21.7959L7.76172 22.0703C6.5866 22.6114 5.78539 22.9777 5.18262 23.1504C4.66386 23.299 4.45959 23.254 4.35059 23.1904L4.30859 23.1631C4.19794 23.0791 4.05871 22.8966 4.0293 22.2373C3.99987 21.5766 4.08675 20.6591 4.21582 19.3271L4.28125 18.6504C4.34721 17.9697 4.41441 17.4182 4.25195 16.8955C4.0884 16.3694 3.72004 15.9599 3.28418 15.4502V15.4492L2.85059 14.9424C1.99605 13.943 1.41081 13.2572 1.06445 12.707C0.765755 12.2325 0.729686 11.9904 0.757812 11.833L0.773438 11.7705C0.819368 11.6228 0.940126 11.4388 1.51074 11.2139C2.09566 10.9833 2.9498 10.7879 4.20508 10.5039L4.8418 10.3594C5.47599 10.2159 6.01817 10.1091 6.45801 9.77539C6.78455 9.52749 7.01262 9.18613 7.24414 8.7832L7.48047 8.36133L7.80859 7.77344C8.45404 6.61553 8.89828 5.82173 9.29199 5.30762C9.68521 4.79424 9.8863 4.75 10 4.75Z" stroke="#F8FAFC" stroke-width="1.5"/>
<defs>
<linearGradient id="paint0_linear_2078_810" x1="67.3057" y1="9.7932" x2="67.3057" y2="21.7889" gradientUnits="userSpaceOnUse">
<stop stop-color="#22D3EE"/>
<stop offset="1" stop-color="#60A5FA"/>
</linearGradient>
<linearGradient id="paint1_linear_2078_810" x1="60.286" y1="6.79442" x2="60.286" y2="21.7891" gradientUnits="userSpaceOnUse">
<stop stop-color="#22D3EE"/>
<stop offset="1" stop-color="white"/>
</linearGradient>
<clipPath id="clip0_2078_810">
<rect width="27.99" height="27.99" fill="white" transform="translate(55.31)"/>
</clipPath>
<clipPath id="clip1_2078_810">
<rect width="27.99" height="27.99" fill="white" transform="translate(55.31)"/>
</clipPath>
<clipPath id="clip2_2078_810">
<rect width="27.99" height="15.9943" fill="white" transform="translate(55.31 5.9978)"/>
</clipPath>
</defs>
</svg>
